<svg id="Layer_1" enable-background="new 0 0 48 60" height="512" viewBox="0 0 48 60" width="512" xmlns="http://www.w3.org/2000/svg"><path d="m43.026 60h-37.993c-2.759 0-5.003-2.245-5.003-5.004v-49.992c0-2.759 2.245-5.004 5.003-5.004h37.993c2.759 0 5.003 2.245 5.003 5.004v49.992c.001 2.759-2.244 5.004-5.003 5.004zm-37.993-58c-1.656 0-3.003 1.348-3.003 3.004v49.992c0 1.656 1.348 3.004 3.003 3.004h37.993c1.656 0 3.003-1.348 3.003-3.004v-49.992c0-1.656-1.347-3.004-3.003-3.004z"/><path d="m24.03 34c-4.962 0-9-4.037-9-9s4.038-9 9-9c4.963 0 9 4.037 9 9s-4.037 9-9 9zm0-16c-3.86 0-7 3.141-7 7s3.14 7 7 7 7-3.141 7-7-3.14-7-7-7z"/><path d="m24.03 29c-2.206 0-4-1.794-4-4s1.794-4 4-4 4 1.794 4 4-1.795 4-4 4zm0-6c-1.103 0-2 .897-2 2s.897 2 2 2 2-.897 2-2-.897-2-2-2z"/><path d="m14.23 51c-2.867 0-5.2-2.333-5.2-5.2 0-2.105 1.256-3.99 3.2-4.8l9.416-3.923c.374-.156.805-.07 1.091.216.287.286.372.718.216 1.092l-3.923 9.415c-.81 1.944-2.694 3.2-4.8 3.2zm5.943-11.143-7.174 2.988c-1.196.499-1.969 1.658-1.969 2.954 0 1.765 1.436 3.2 3.2 3.2 1.296 0 2.456-.773 2.954-1.97z"/><path d="m20.03 60h-14.997c-2.759 0-5.003-2.245-5.003-5.004v-9.996c0-.553.448-1 1-1h5c.552 0 1 .447 1 1 0 4.411 3.589 8 8 8h5c.552 0 1 .447 1 1v5c0 .553-.448 1-1 1zm-18-14v8.996c0 1.656 1.348 3.004 3.003 3.004h13.997v-3h-4c-5.176 0-9.447-3.954-9.95-9z"/><path d="m24.03 45c-1.474 0-2.993-.179-4.515-.53-.287-.066-.53-.256-.665-.518-.134-.262-.146-.57-.033-.842l1.355-3.253-5.563 2.317c-.294.123-.629.098-.902-.067-6.061-3.664-9.677-10.06-9.677-17.107 0-11.028 8.972-20 20-20s20 8.972 20 20-8.972 20-20 20zm-2.898-2.246c.98.163 1.95.246 2.897.246 9.925 0 18-8.075 18-18s-8.075-18-18-18-18 8.075-18 18c0 6.175 3.087 11.794 8.286 15.131l7.33-3.054c.374-.156.805-.07 1.091.216.287.286.372.718.216 1.092z"/></svg>