<?xml version="1.0" encoding="UTF-8" standalone="no"?>
<!-- Created with Inkscape (http://www.inkscape.org/) -->

<svg
   xmlns:dc="http://purl.org/dc/elements/1.1/"
   xmlns:cc="http://creativecommons.org/ns#"
   xmlns:rdf="http://www.w3.org/1999/02/22-rdf-syntax-ns#"
   xmlns:svg="http://www.w3.org/2000/svg"
   xmlns="http://www.w3.org/2000/svg"
   xmlns:sodipodi="http://sodipodi.sourceforge.net/DTD/sodipodi-0.dtd"
   xmlns:inkscape="http://www.inkscape.org/namespaces/inkscape"
   width="72.309395mm"
   height="72.309364mm"
   viewBox="0 0 72.309395 72.309364"
   version="1.1"
   id="svg8"
   inkscape:version="0.92.2 2405546, 2018-03-11"
   sodipodi:docname="router_state.svg"
   inkscape:export-filename="/home/fin/Documents/Uni/WAMP-Router/router_state.png"
   inkscape:export-xdpi="300"
   inkscape:export-ydpi="300">
  <defs
     id="defs2" />
  <sodipodi:namedview
     id="base"
     pagecolor="#ffffff"
     bordercolor="#666666"
     borderopacity="1.0"
     inkscape:pageopacity="0.0"
     inkscape:pageshadow="2"
     inkscape:zoom="2.8284271"
     inkscape:cx="136.86463"
     inkscape:cy="87.361081"
     inkscape:document-units="mm"
     inkscape:current-layer="layer1"
     showgrid="true"
     inkscape:snap-bbox="true"
     inkscape:bbox-paths="true"
     inkscape:bbox-nodes="true"
     inkscape:snap-bbox-edge-midpoints="true"
     inkscape:snap-bbox-midpoints="true"
     inkscape:object-nodes="false"
     fit-margin-top="5"
     fit-margin-left="5"
     fit-margin-right="5"
     fit-margin-bottom="5"
     inkscape:window-width="1440"
     inkscape:window-height="1555"
     inkscape:window-x="0"
     inkscape:window-y="30"
     inkscape:window-maximized="0"
     inkscape:snap-object-midpoints="false"
     inkscape:snap-center="false"
     inkscape:object-paths="false"
     inkscape:snap-intersection-paths="false"
     inkscape:snap-smooth-nodes="false"
     inkscape:snap-midpoints="false"
     inkscape:snap-others="false"
     inkscape:snap-nodes="false">
    <inkscape:grid
       type="xygrid"
       id="grid1304"
       spacingx="2.6458333"
       spacingy="2.6458333"
       originx="-69.347913"
       originy="-175.44586" />
  </sodipodi:namedview>
  <metadata
     id="metadata5">
    <rdf:RDF>
      <cc:Work
         rdf:about="">
        <dc:format>image/svg+xml</dc:format>
        <dc:type
           rdf:resource="http://purl.org/dc/dcmitype/StillImage" />
        <dc:title></dc:title>
      </cc:Work>
    </rdf:RDF>
  </metadata>
  <g
     inkscape:label="Layer 1"
     inkscape:groupmode="layer"
     id="layer1"
     transform="translate(-69.347914,-49.244793)">
    <g
       id="g1302"
       transform="matrix(0.26458333,0,0,0.26458333,98.028125,74.88231)">
      <g
         id="g1206">
	<g
   id="g1196">
		<path
   id="path1124"
   d="M 54.892,19 H 4.108 C 2.116,19 0.5,17.384 0.5,15.392 V 3.608 C 0.5,1.616 2.116,0 4.108,0 H 54.891 C 56.884,0 58.5,1.616 58.5,3.608 V 15.391 C 58.5,17.384 56.884,19 54.892,19 Z"
   style="fill:#556080"
   inkscape:connector-curvature="0" />

		<path
   id="path1126"
   d="M 54.892,38 H 4.108 C 2.116,38 0.5,36.384 0.5,34.392 V 22.608 C 0.5,20.616 2.116,19 4.108,19 h 50.783 c 1.993,0 3.608,1.616 3.608,3.608 V 34.391 C 58.5,36.384 56.884,38 54.892,38 Z"
   style="fill:#38454f"
   inkscape:connector-curvature="0" />

		<path
   id="path1128"
   d="M 54.892,57 H 4.108 C 2.116,57 0.5,55.384 0.5,53.392 V 41.608 C 0.5,39.616 2.116,38 4.108,38 h 50.783 c 1.993,0 3.608,1.616 3.608,3.608 V 53.391 C 58.5,55.384 56.884,57 54.892,57 Z"
   style="fill:#556080"
   inkscape:connector-curvature="0" />

		<circle
   id="circle1130"
   r="3.5"
   cy="9.5"
   cx="10"
   style="fill:#8697cb" />

		<circle
   id="circle1132"
   r="1"
   cy="8"
   cx="49.5"
   style="fill:#8697cb" />

		<circle
   id="circle1134"
   r="1"
   cy="8"
   cx="45.5"
   style="fill:#8697cb" />

		<circle
   id="circle1136"
   r="1"
   cy="11"
   cx="51.5"
   style="fill:#8697cb" />

		<circle
   id="circle1138"
   r="1"
   cy="11"
   cx="47.5"
   style="fill:#8697cb" />

		<circle
   id="circle1140"
   r="1"
   cy="8"
   cx="41.5"
   style="fill:#8697cb" />

		<circle
   id="circle1142"
   r="1"
   cy="11"
   cx="43.5"
   style="fill:#8697cb" />

		<circle
   id="circle1144"
   r="1"
   cy="8"
   cx="37.5"
   style="fill:#8697cb" />

		<circle
   id="circle1146"
   r="1"
   cy="11"
   cx="39.5"
   style="fill:#8697cb" />

		<circle
   id="circle1148"
   r="1"
   cy="8"
   cx="33.5"
   style="fill:#8697cb" />

		<circle
   id="circle1150"
   r="1"
   cy="11"
   cx="35.5"
   style="fill:#8697cb" />

		<circle
   id="circle1152"
   r="3.5"
   cy="28.5"
   cx="10"
   style="fill:#8697cb" />

		<circle
   id="circle1154"
   r="1"
   cy="27"
   cx="49.5"
   style="fill:#8697cb" />

		<circle
   id="circle1156"
   r="1"
   cy="27"
   cx="45.5"
   style="fill:#8697cb" />

		<circle
   id="circle1158"
   r="1"
   cy="30"
   cx="51.5"
   style="fill:#8697cb" />

		<circle
   id="circle1160"
   r="1"
   cy="30"
   cx="47.5"
   style="fill:#8697cb" />

		<circle
   id="circle1162"
   r="1"
   cy="27"
   cx="41.5"
   style="fill:#8697cb" />

		<circle
   id="circle1164"
   r="1"
   cy="30"
   cx="43.5"
   style="fill:#8697cb" />

		<circle
   id="circle1166"
   r="1"
   cy="27"
   cx="37.5"
   style="fill:#8697cb" />

		<circle
   id="circle1168"
   r="1"
   cy="30"
   cx="39.5"
   style="fill:#8697cb" />

		<circle
   id="circle1170"
   r="1"
   cy="27"
   cx="33.5"
   style="fill:#8697cb" />

		<circle
   id="circle1172"
   r="1"
   cy="30"
   cx="35.5"
   style="fill:#8697cb" />

		<circle
   id="circle1174"
   r="3.5"
   cy="47.5"
   cx="10"
   style="fill:#8697cb" />

		<circle
   id="circle1176"
   r="1"
   cy="46"
   cx="49.5"
   style="fill:#8697cb" />

		<circle
   id="circle1178"
   r="1"
   cy="46"
   cx="45.5"
   style="fill:#8697cb" />

		<circle
   id="circle1180"
   r="1"
   cy="49"
   cx="51.5"
   style="fill:#8697cb" />

		<circle
   id="circle1182"
   r="1"
   cy="49"
   cx="47.5"
   style="fill:#8697cb" />

		<circle
   id="circle1184"
   r="1"
   cy="46"
   cx="41.5"
   style="fill:#8697cb" />

		<circle
   id="circle1186"
   r="1"
   cy="49"
   cx="43.5"
   style="fill:#8697cb" />

		<circle
   id="circle1188"
   r="1"
   cy="46"
   cx="37.5"
   style="fill:#8697cb" />

		<circle
   id="circle1190"
   r="1"
   cy="49"
   cx="39.5"
   style="fill:#8697cb" />

		<circle
   id="circle1192"
   r="1"
   cy="46"
   cx="33.5"
   style="fill:#8697cb" />

		<circle
   id="circle1194"
   r="1"
   cy="49"
   cx="35.5"
   style="fill:#8697cb" />

	</g>

	<g
   id="g1204">
		<g
   id="g1202">
			<path
   id="path1198"
   d="M 53.545,48.111 C 53.494,44.175 50.382,41 46.546,41 c -2.568,0 -4.806,1.426 -6.025,3.546 -0.421,-0.141 -0.87,-0.22 -1.337,-0.22 -2.063,0 -3.785,1.492 -4.208,3.484 C 33.221,48.675 32,50.516 32,52.641 32,55.589 34.343,58 37.208,58 h 10.775 c 0.061,0 0.119,-0.007 0.18,-0.009 0.06,0.002 0.119,0.009 0.18,0.009 h 4.31 c 2.667,0 4.849,-2.245 4.849,-4.989 -0.002,-2.43 -1.714,-4.465 -3.957,-4.9 z"
   style="fill:#48a0dc"
   inkscape:connector-curvature="0" />

			<path
   id="path1200"
   d="m 52.651,59 h -4.31 C 48.278,59 48.215,58.996 48.153,58.992 48.106,58.996 48.045,59 47.982,59 H 37.208 C 33.785,59 31,56.147 31,52.642 c 0,-2.262 1.209,-4.372 3.116,-5.503 0.686,-2.235 2.746,-3.813 5.066,-3.813 0.296,0 0.592,0.025 0.884,0.076 C 41.562,41.286 43.98,40 46.546,40 c 4.102,0 7.524,3.225 7.954,7.332 2.358,0.806 4,3.079 4,5.679 C 58.5,56.313 55.876,59 52.651,59 Z M 48.114,56.991 48.3,56.997 52.651,57 c 2.122,0 3.849,-1.79 3.849,-3.989 0,-1.917 -1.323,-3.564 -3.146,-3.919 L 52.555,48.937 52.544,48.124 C 52.501,44.747 49.811,42 46.546,42 c -2.135,0 -4.063,1.139 -5.158,3.045 l -0.409,0.711 -0.777,-0.261 c -0.332,-0.112 -0.675,-0.169 -1.019,-0.169 -1.54,0 -2.898,1.133 -3.229,2.692 l -0.102,0.475 -0.435,0.214 C 33.948,49.432 33,50.976 33,52.642 33,55.045 34.888,57 37.208,57 Z"
   style="fill:#b1d3ef"
   inkscape:connector-curvature="0" />

		</g>

	</g>

</g>
      <g
         id="g1208">
</g>
      <g
         id="g1210">
</g>
      <g
         id="g1212">
</g>
      <g
         id="g1214">
</g>
      <g
         id="g1216">
</g>
      <g
         id="g1218">
</g>
      <g
         id="g1220">
</g>
      <g
         id="g1222">
</g>
      <g
         id="g1224">
</g>
      <g
         id="g1226">
</g>
      <g
         id="g1228">
</g>
      <g
         id="g1230">
</g>
      <g
         id="g1232">
</g>
      <g
         id="g1234">
</g>
      <g
         id="g1236">
</g>
    </g>
    <path
       style="fill:none;fill-rule:evenodd;stroke:#000000;stroke-width:1.05833328;stroke-linecap:butt;stroke-linejoin:miter;stroke-miterlimit:4;stroke-dasharray:1.05833327, 1.05833327;stroke-dashoffset:0;stroke-opacity:0.50196078"
       d="m 116.41667,72.104183 7.93749,-2.645848"
       id="path1306"
       inkscape:connector-curvature="0"
       sodipodi:nodetypes="cc" />
    <path
       style="fill:none;fill-rule:evenodd;stroke:#000000;stroke-width:1.05833328;stroke-linecap:butt;stroke-linejoin:miter;stroke-miterlimit:4;stroke-dasharray:1.05833327, 1.05833327;stroke-dashoffset:0;stroke-opacity:0.50196078"
       d="M 95.25,72.104183 87.312499,69.458335"
       id="path1308"
       inkscape:connector-curvature="0"
       sodipodi:nodetypes="cc" />
    <path
       style="fill:none;fill-rule:evenodd;stroke:#000000;stroke-width:1.05833328;stroke-linecap:butt;stroke-linejoin:miter;stroke-miterlimit:4;stroke-dasharray:1.05833327, 1.05833327;stroke-dashoffset:0;stroke-opacity:0.5"
       d="m 105.83333,93.270849 v 5.29166"
       id="path1310"
       inkscape:connector-curvature="0"
       sodipodi:nodetypes="cc" />
    <g
       id="g1420"
       transform="matrix(0.26458333,0,0,0.26458333,124.48659,53.715644)">
      <g
         id="g1360">
	<path
   id="path1350"
   d="m 56,17.707 c 0,-8.822 -7.178,-16 -16,-16 H 16 c -8.822,0 -16,7.178 -16,16 v 14 c 0,8.485 6.644,15.429 15,15.949 v -3.949 c 0,-0.553 0.448,-1 1,-1 0.552,0 1,0.447 1,1 v 4 1 8.586 l 1.359,-1.359 c 5.306,-5.305 12.359,-8.227 19.86,-8.227 H 40 c 8.822,0 16,-7.178 16,-16 z"
   style="fill:#69bc45"
   inkscape:connector-curvature="0" />

	<g
   id="g1358">
		<g
   id="g1356">
			<path
   id="path1352"
   d="m 54.045,44.833 c -0.05,-3.935 -3.162,-7.111 -6.999,-7.111 -2.568,0 -4.806,1.426 -6.025,3.546 -0.421,-0.141 -0.87,-0.22 -1.337,-0.22 -2.063,0 -3.785,1.492 -4.208,3.484 -1.754,0.865 -2.975,2.706 -2.975,4.831 0,2.947 2.343,5.359 5.208,5.359 h 10.775 c 0.061,0 0.119,-0.007 0.18,-0.009 0.06,0.002 0.119,0.009 0.18,0.009 h 4.31 c 2.667,0 4.849,-2.245 4.849,-4.989 -0.003,-2.429 -1.715,-4.465 -3.958,-4.9 z"
   style="fill:#48a0dc"
   inkscape:connector-curvature="0" />

			<path
   id="path1354"
   d="m 53.151,55.723 h -4.31 c -0.063,0 -0.126,-0.004 -0.188,-0.008 -0.048,0.004 -0.109,0.008 -0.172,0.008 H 37.708 c -3.423,0 -6.208,-2.853 -6.208,-6.358 0,-2.262 1.209,-4.372 3.116,-5.503 0.686,-2.235 2.746,-3.813 5.066,-3.813 0.296,0 0.592,0.025 0.884,0.076 1.495,-2.116 3.914,-3.402 6.479,-3.402 4.102,0 7.524,3.225 7.954,7.332 2.358,0.806 4,3.079 4,5.679 10e-4,3.302 -2.623,5.989 -5.848,5.989 z m -4.537,-2.009 0.186,0.006 4.352,0.003 c 2.122,0 3.849,-1.79 3.849,-3.989 0,-1.917 -1.323,-3.564 -3.146,-3.919 L 53.056,45.66 53.045,44.847 c -0.044,-3.376 -2.734,-6.123 -5.999,-6.123 -2.135,0 -4.063,1.139 -5.158,3.045 L 41.479,42.48 40.702,42.219 C 40.37,42.107 40.027,42.05 39.683,42.05 c -1.54,0 -2.898,1.133 -3.229,2.692 l -0.102,0.475 -0.435,0.214 C 34.448,46.156 33.5,47.7 33.5,49.366 c 0,2.403 1.888,4.358 4.208,4.358 z"
   style="fill:#b1d3ef"
   inkscape:connector-curvature="0" />

		</g>

	</g>

</g>
      <g
         id="g1362">
</g>
      <g
         id="g1364">
</g>
      <g
         id="g1366">
</g>
      <g
         id="g1368">
</g>
      <g
         id="g1370">
</g>
      <g
         id="g1372">
</g>
      <g
         id="g1374">
</g>
      <g
         id="g1376">
</g>
      <g
         id="g1378">
</g>
      <g
         id="g1380">
</g>
      <g
         id="g1382">
</g>
      <g
         id="g1384">
</g>
      <g
         id="g1386">
</g>
      <g
         id="g1388">
</g>
      <g
         id="g1390">
</g>
    </g>
    <g
       id="g1498"
       transform="matrix(0.26458333,0,0,0.26458333,72.032836,54.178533)">
      <g
         id="g1436">
	<g
   id="g1426">
		<path
   id="path1422"
   d="m 54.038,42.154 c -1.898,-3.587 -8.899,-7.69 -8.899,-7.69 -1.584,-0.903 -3.495,-1.004 -4.399,0.606 0,0 -2.274,2.728 -2.853,3.12 -2.643,1.791 -5.091,1.722 -7.562,-0.75 l -5.743,-5.743 -5.743,-5.743 c -2.472,-2.472 -2.541,-4.919 -0.75,-7.562 0.392,-0.579 3.12,-2.853 3.12,-2.853 1.609,-0.904 1.509,-2.815 0.606,-4.399 0,0 -4.103,-7.001 -7.69,-8.899 -1.526,-0.808 -3.4,-0.526 -4.621,0.695 L 6.965,5.471 C -1.08,13.516 2.881,22.6 10.926,30.645 l 7.353,7.353 7.353,7.353 c 8.045,8.045 17.129,12.007 25.174,3.961 l 2.537,-2.537 c 1.22,-1.221 1.502,-3.095 0.695,-4.621 z"
   style="fill:#69bc45"
   inkscape:connector-curvature="0" />

		<path
   id="path1424"
   d="m 54.921,41.687 c -2.008,-3.796 -8.981,-7.912 -9.287,-8.092 -0.896,-0.51 -1.831,-0.78 -2.706,-0.78 -1.301,0 -2.366,0.596 -3.011,1.68 -1.02,1.22 -2.286,2.646 -2.592,2.867 -2.376,1.612 -4.237,1.429 -6.294,-0.629 L 19.544,25.246 c -2.044,-2.045 -2.232,-3.928 -0.632,-6.29 0.224,-0.31 1.65,-1.575 2.871,-2.597 0.778,-0.463 1.312,-1.15 1.545,-1.995 C 23.64,13.242 23.41,11.92 22.676,10.633 22.503,10.337 18.386,3.363 14.591,1.356 13.883,0.981 13.085,0.783 12.285,0.783 10.967,0.783 9.727,1.297 8.796,2.228 L 6.258,4.765 c -4.014,4.013 -5.467,8.562 -4.321,13.52 0.956,4.132 3.742,8.529 8.282,13.068 l 14.705,14.705 c 5.746,5.746 11.224,8.66 16.282,8.66 0,0 0,0 10e-4,0 3.72,0 7.188,-1.581 10.305,-4.698 l 2.537,-2.537 c 1.541,-1.541 1.892,-3.87 0.872,-5.796 z m -2.286,4.381 -2.537,2.537 c -2.729,2.729 -5.72,4.112 -8.891,4.112 0,0 0,0 0,0 -4.509,0 -9.512,-2.717 -14.869,-8.074 L 11.633,29.938 C 7.362,25.667 4.755,21.594 3.885,17.833 2.89,13.533 4.129,9.721 7.671,6.179 l 2.537,-2.537 c 0.554,-0.554 1.291,-0.859 2.075,-0.859 0.476,0 0.949,0.118 1.371,0.341 3.294,1.743 7.256,8.454 7.29,8.511 0.449,0.787 0.62,1.608 0.457,2.196 -0.1,0.36 -0.323,0.633 -0.683,0.835 l -0.151,0.104 c -0.853,0.711 -2.882,2.433 -3.308,3.061 -0.612,0.904 -1.018,1.793 -1.23,2.666 -0.711,-1.418 -1.286,-3.061 -1.475,-4.881 -0.057,-0.548 -0.546,-0.931 -1.098,-0.892 -0.549,0.058 -0.949,0.549 -0.892,1.099 0.722,6.953 6.129,11.479 6.359,11.668 0.025,0.021 0.056,0.029 0.082,0.047 l 10.611,10.61 c 0.044,0.044 0.09,0.083 0.134,0.126 0.036,0.053 0.059,0.111 0.106,0.157 0.189,0.187 4.704,4.567 11.599,5.283 0.035,0.003 0.07,0.005 0.104,0.005 0.506,0 0.94,-0.383 0.994,-0.896 0.057,-0.55 -0.342,-1.041 -0.892,-1.099 -2.112,-0.219 -3.983,-0.838 -5.543,-1.556 0.762,-0.231 1.538,-0.614 2.328,-1.149 0.628,-0.425 2.35,-2.455 3.061,-3.308 l 0.104,-0.151 c 0.281,-0.5 0.712,-0.744 1.317,-0.744 0.52,0 1.129,0.185 1.705,0.512 1.879,1.102 7.072,4.559 8.521,7.296 0.606,1.144 0.397,2.528 -0.519,3.444 z"
   style="fill:#449e46"
   inkscape:connector-curvature="0" />

	</g>

	<g
   id="g1434">
		<g
   id="g1432">
			<path
   id="path1428"
   d="m 22.545,37.829 c -0.05,-3.935 -3.162,-7.111 -6.999,-7.111 -2.568,0 -4.806,1.426 -6.025,3.546 -0.421,-0.141 -0.87,-0.22 -1.337,-0.22 -2.063,0 -3.785,1.492 -4.208,3.484 C 2.221,38.393 1,40.234 1,42.359 c 0,2.947 2.343,5.359 5.208,5.359 h 10.775 c 0.061,0 0.119,-0.007 0.18,-0.009 0.06,0.002 0.119,0.009 0.18,0.009 h 4.31 c 2.667,0 4.849,-2.245 4.849,-4.989 -0.002,-2.43 -1.714,-4.466 -3.957,-4.9 z"
   style="fill:#48a0dc"
   inkscape:connector-curvature="0" />

			<path
   id="path1430"
   d="m 21.651,48.718 h -4.31 c -0.063,0 -0.126,-0.004 -0.188,-0.008 -0.048,0.004 -0.109,0.008 -0.172,0.008 H 6.208 C 2.785,48.718 0,45.865 0,42.359 c 0,-2.262 1.209,-4.372 3.116,-5.503 0.686,-2.235 2.746,-3.813 5.066,-3.813 0.296,0 0.592,0.025 0.884,0.076 1.495,-2.116 3.914,-3.402 6.479,-3.402 4.102,0 7.524,3.225 7.954,7.332 2.358,0.806 4,3.079 4,5.679 0.001,3.303 -2.623,5.99 -5.848,5.99 z m -4.537,-2.009 0.186,0.006 4.352,0.003 c 2.122,0 3.849,-1.79 3.849,-3.989 0,-1.917 -1.323,-3.564 -3.146,-3.919 l -0.799,-0.155 -0.011,-0.813 c -0.044,-3.376 -2.734,-6.123 -5.999,-6.123 -2.135,0 -4.063,1.139 -5.158,3.045 L 9.979,35.475 9.202,35.214 C 8.87,35.102 8.527,35.045 8.183,35.045 c -1.54,0 -2.898,1.133 -3.229,2.692 L 4.852,38.212 4.417,38.426 C 2.948,39.149 2,40.693 2,42.359 c 0,2.403 1.888,4.358 4.208,4.358 z"
   style="fill:#b1d3ef"
   inkscape:connector-curvature="0" />

		</g>

	</g>

</g>
      <g
         id="g1438">
</g>
      <g
         id="g1440">
</g>
      <g
         id="g1442">
</g>
      <g
         id="g1444">
</g>
      <g
         id="g1446">
</g>
      <g
         id="g1448">
</g>
      <g
         id="g1450">
</g>
      <g
         id="g1452">
</g>
      <g
         id="g1454">
</g>
      <g
         id="g1456">
</g>
      <g
         id="g1458">
</g>
      <g
         id="g1460">
</g>
      <g
         id="g1462">
</g>
      <g
         id="g1464">
</g>
      <g
         id="g1466">
</g>
    </g>
    <g
       id="g1603"
       transform="matrix(0.03307292,0,0,0.03307292,97.366665,100.67917)">
      <g
         id="g1504">
	<path
   id="path1500"
   d="M 497.876,459.034 H 296.607 c -7.945,0 -14.124,-6.179 -14.124,-14.124 V 296.607 c 0,-7.945 6.179,-14.124 14.124,-14.124 h 201.269 c 7.945,0 14.124,6.179 14.124,14.124 V 444.91 c 0,7.945 -6.179,14.124 -14.124,14.124"
   style="fill:#e8edee"
   inkscape:connector-curvature="0" />

	<path
   id="path1502"
   d="M 215.393,176.552 H 14.124 C 6.179,176.552 0,170.372 0,162.428 V 14.124 C 0,6.179 6.179,0 14.124,0 h 201.269 c 7.945,0 14.124,6.179 14.124,14.124 v 148.303 c 0,7.945 -6.179,14.125 -14.124,14.125"
   style="fill:#e8edee"
   inkscape:connector-curvature="0" />

</g>
      <g
         id="g1510">
	<path
   id="path1506"
   d="M 35.31,128.883 V 47.669 c 0,-7.062 5.297,-12.359 12.359,-12.359 h 134.179 c 7.062,0 12.359,5.297 12.359,12.359 v 81.214 c 0,7.062 -5.297,12.359 -12.359,12.359 H 47.669 C 40.607,141.241 35.31,135.945 35.31,128.883"
   style="fill:#38454f"
   inkscape:connector-curvature="0" />

	<path
   id="path1508"
   d="m 317.793,411.366 v -81.214 c 0,-7.062 5.297,-12.359 12.359,-12.359 h 134.179 c 7.062,0 12.359,5.297 12.359,12.359 v 81.214 c 0,7.062 -5.297,12.359 -12.359,12.359 H 330.152 c -7.062,-0.001 -12.359,-5.297 -12.359,-12.359"
   style="fill:#38454f"
   inkscape:connector-curvature="0" />

</g>
      <g
         id="g1516">
	<path
   id="path1512"
   d="M 156.248,229.517 H 73.269 c -6.179,0 -11.476,-5.297 -11.476,-11.476 v -41.49 h 105.931 v 41.49 c 0,6.18 -5.296,11.476 -11.476,11.476"
   style="fill:#b0b6bb"
   inkscape:connector-curvature="0" />

	<path
   id="path1514"
   d="m 438.731,512 h -83.862 c -6.179,0 -11.476,-5.297 -11.476,-11.476 v -41.49 h 105.931 v 41.49 C 450.207,506.703 444.91,512 438.731,512"
   style="fill:#b0b6bb"
   inkscape:connector-curvature="0" />

</g>
      <g
         id="g1526">
	<path
   id="path1518"
   d="m 114.759,273.655 c -5.297,0 -8.828,-3.531 -8.828,-8.828 v -35.31 c 0,-5.297 3.531,-8.828 8.828,-8.828 5.297,0 8.828,3.531 8.828,8.828 v 35.31 c -0.001,5.297 -3.532,8.828 -8.828,8.828 m 0,61.793 c -5.297,0 -8.828,-3.531 -8.828,-8.828 v -26.483 c 0,-5.297 3.531,-8.828 8.828,-8.828 5.297,0 8.828,3.531 8.828,8.828 v 26.483 c -0.001,5.297 -3.532,8.828 -8.828,8.828 m 0,61.793 c -5.297,0 -8.828,-3.531 -8.828,-8.828 V 361.93 c 0,-5.297 3.531,-8.828 8.828,-8.828 5.297,0 8.828,3.531 8.828,8.828 v 26.483 c -0.001,5.297 -3.532,8.828 -8.828,8.828"
   style="fill:#42b05c"
   inkscape:connector-curvature="0" />

	<path
   id="path1520"
   d="m 185.379,432.552 h -35.31 c -5.297,0 -8.828,-3.531 -8.828,-8.828 0,-5.297 3.531,-8.828 8.828,-8.828 h 35.31 c 5.297,0 8.828,3.531 8.828,8.828 0,5.297 -3.531,8.828 -8.828,8.828 m 61.793,0 H 220.69 c -5.297,0 -8.828,-3.531 -8.828,-8.828 0,-5.297 3.531,-8.828 8.828,-8.828 h 26.483 c 5.297,0 8.828,3.531 8.828,8.828 -10e-4,5.297 -3.532,8.828 -8.829,8.828"
   style="fill:#42b05c"
   inkscape:connector-curvature="0" />

	<path
   id="path1522"
   d="m 264.828,88.276 h -35.31 c -5.297,0 -8.828,-3.531 -8.828,-8.828 0,-5.297 3.531,-8.828 8.828,-8.828 h 35.31 c 5.297,0 8.828,3.531 8.828,8.828 0,5.297 -3.532,8.828 -8.828,8.828 m 61.793,0 h -26.483 c -5.297,0 -8.828,-3.531 -8.828,-8.828 0,-5.297 3.531,-8.828 8.828,-8.828 h 26.483 c 5.297,0 8.828,3.531 8.828,8.828 0,5.297 -3.532,8.828 -8.828,8.828 m 61.793,0 h -26.483 c -5.297,0 -8.828,-3.531 -8.828,-8.828 0,-5.297 3.531,-8.828 8.828,-8.828 h 26.483 c 5.297,0 8.828,3.531 8.828,8.828 0,5.297 -3.532,8.828 -8.828,8.828"
   style="fill:#42b05c"
   inkscape:connector-curvature="0" />

	<path
   id="path1524"
   d="m 423.724,158.897 c -5.297,0 -8.828,-3.531 -8.828,-8.828 v -35.31 c 0,-5.297 3.531,-8.828 8.828,-8.828 5.297,0 8.828,3.531 8.828,8.828 v 35.31 c 0,5.297 -3.531,8.828 -8.828,8.828 m 0,61.793 c -5.297,0 -8.828,-3.531 -8.828,-8.828 v -26.483 c 0,-5.297 3.531,-8.828 8.828,-8.828 5.297,0 8.828,3.531 8.828,8.828 v 26.483 c 0,5.297 -3.531,8.828 -8.828,8.828 m 0,70.62 c -5.297,0 -8.828,-3.531 -8.828,-8.828 v -35.31 c 0,-5.297 3.531,-8.828 8.828,-8.828 5.297,0 8.828,3.531 8.828,8.828 v 35.31 c 0,5.297 -3.531,8.828 -8.828,8.828"
   style="fill:#42b05c"
   inkscape:connector-curvature="0" />

</g>
      <g
         id="g1532">
	<path
   id="path1528"
   d="m 150.069,423.724 c 0,19.421 -15.89,35.31 -35.31,35.31 -19.42,0 -35.31,-15.89 -35.31,-35.31 0,-19.421 15.89,-35.31 35.31,-35.31 19.42,0 35.31,15.889 35.31,35.31"
   style="fill:#ecba16"
   inkscape:connector-curvature="0" />

	<path
   id="path1530"
   d="m 423.724,114.759 c 19.421,0 35.31,-15.89 35.31,-35.31 0,-19.42 -15.89,-35.31 -35.31,-35.31 -19.42,0 -35.31,15.89 -35.31,35.31 0,19.42 15.889,35.31 35.31,35.31"
   style="fill:#ecba16"
   inkscape:connector-curvature="0" />

</g>
      <g
         id="g1534">
</g>
      <g
         id="g1536">
</g>
      <g
         id="g1538">
</g>
      <g
         id="g1540">
</g>
      <g
         id="g1542">
</g>
      <g
         id="g1544">
</g>
      <g
         id="g1546">
</g>
      <g
         id="g1548">
</g>
      <g
         id="g1550">
</g>
      <g
         id="g1552">
</g>
      <g
         id="g1554">
</g>
      <g
         id="g1556">
</g>
      <g
         id="g1558">
</g>
      <g
         id="g1560">
</g>
      <g
         id="g1562">
</g>
    </g>
  </g>
</svg>
