<?xml version="1.0" encoding="UTF-8" standalone="no"?>
<!-- Created with Inkscape (http://www.inkscape.org/) -->

<svg
   xmlns:dc="http://purl.org/dc/elements/1.1/"
   xmlns:cc="http://creativecommons.org/ns#"
   xmlns:rdf="http://www.w3.org/1999/02/22-rdf-syntax-ns#"
   xmlns:svg="http://www.w3.org/2000/svg"
   xmlns="http://www.w3.org/2000/svg"
   xmlns:sodipodi="http://sodipodi.sourceforge.net/DTD/sodipodi-0.dtd"
   xmlns:inkscape="http://www.inkscape.org/namespaces/inkscape"
   width="72.309395mm"
   height="72.309364mm"
   viewBox="0 0 72.309395 72.309364"
   version="1.1"
   id="svg8"
   inkscape:version="0.92.2 2405546, 2018-03-11"
   sodipodi:docname="sharing_state.svg"
   inkscape:export-filename="/home/fin/Documents/Uni/WAMP-Router/sharing_state.png"
   inkscape:export-xdpi="300"
   inkscape:export-ydpi="300">
  <defs
     id="defs2" />
  <sodipodi:namedview
     id="base"
     pagecolor="#ffffff"
     bordercolor="#666666"
     borderopacity="1.0"
     inkscape:pageopacity="0.0"
     inkscape:pageshadow="2"
     inkscape:zoom="2.8284271"
     inkscape:cx="130.27767"
     inkscape:cy="118.58369"
     inkscape:document-units="mm"
     inkscape:current-layer="layer1"
     showgrid="false"
     inkscape:snap-bbox="true"
     inkscape:bbox-paths="true"
     inkscape:bbox-nodes="true"
     inkscape:snap-bbox-edge-midpoints="true"
     inkscape:snap-bbox-midpoints="true"
     inkscape:object-nodes="false"
     fit-margin-top="5"
     fit-margin-left="5"
     fit-margin-right="5"
     fit-margin-bottom="5"
     inkscape:window-width="1440"
     inkscape:window-height="1555"
     inkscape:window-x="0"
     inkscape:window-y="30"
     inkscape:window-maximized="0">
    <inkscape:grid
       type="xygrid"
       id="grid1304"
       spacingx="2.6458333"
       spacingy="2.6458333"
       originx="-69.347913"
       originy="-175.44586" />
  </sodipodi:namedview>
  <metadata
     id="metadata5">
    <rdf:RDF>
      <cc:Work
         rdf:about="">
        <dc:format>image/svg+xml</dc:format>
        <dc:type
           rdf:resource="http://purl.org/dc/dcmitype/StillImage" />
        <dc:title></dc:title>
      </cc:Work>
    </rdf:RDF>
  </metadata>
  <g
     inkscape:label="Layer 1"
     inkscape:groupmode="layer"
     id="layer1"
     transform="translate(-69.347914,-49.244793)">
    <g
       id="g915"
       transform="matrix(0.26458333,0,0,0.26458333,97.895832,76.337502)">
      <g
         id="g845">
	<g
   id="g833">
		<g
   id="g819">
			<path
   id="path815"
   d="M 50.003,21.5 C 49.888,12.801 42.81,5.5 34.084,5.5 28.525,5.5 23.305,8.505 20.423,12.836 19.157,11.993 17.636,11.5 16,11.5 c -4.418,0 -8,3.582 -8,8 0,0.153 0.014,0.302 0.023,0.454 C 8.013,20.136 8,20.32 8,20.5 4.012,22.412 1,26.957 1,31.655 1,38.17 6.33,43.5 12.845,43.5 h 24.507 c 0.138,0 0.272,-0.016 0.408,-0.021 0.137,0.005 0.271,0.021 0.408,0.021 h 9.803 C 54.037,43.5 59,38.537 59,32.472 59,27.101 55.106,22.461 50.003,21.5 Z"
   style="fill:#91bae1"
   inkscape:connector-curvature="0" />

			<path
   id="path817"
   d="m 47.972,44.5 h -9.803 c -0.104,0 -0.207,-0.006 -0.311,-0.014 l -0.134,-0.008 -0.062,0.008 C 37.558,44.494 37.456,44.5 37.351,44.5 H 12.845 C 5.762,44.5 0,38.737 0,31.654 0,26.899 2.857,22.149 7.016,19.881 V 19.877 C 7.008,19.752 7,19.627 7,19.5 c 0,-4.963 4.037,-9 9,-9 1.45,0 2.863,0.347 4.139,1.008 C 23.396,7.163 28.655,4.5 34.085,4.5 43.028,4.5 50.447,11.694 50.976,20.694 56.173,22.06 60,26.983 60,32.472 60,39.104 54.604,44.5 47.972,44.5 Z m -10.247,-2.02 0.271,0.011 c 0.058,0.004 0.115,0.009 0.174,0.009 h 9.803 C 53.501,42.5 58,38.001 58,32.472 58,27.656 54.482,23.362 49.818,22.483 L 49.014,22.332 49.003,21.515 C 48.895,13.235 42.202,6.5 34.085,6.5 29.077,6.5 24.042,9.204 21.256,13.39 L 20.702,14.222 19.87,13.669 C 18.721,12.904 17.382,12.5 16,12.5 c -3.859,0 -7,3.141 -7,7 0,0.082 0.006,0.163 0.012,0.244 l 0.012,0.21 -0.009,0.16 C 9.008,20.244 9,20.373 9,20.5 v 0.63 L 8.433,21.401 C 4.705,23.188 2,27.5 2,31.654 2,37.635 6.865,42.5 12.845,42.5 h 24.508 c 0.059,0 0.116,-0.005 0.174,-0.009 z"
   style="fill:#8697cb"
   inkscape:connector-curvature="0" />

		</g>

		<g
   id="g825">
			<path
   id="path821"
   d="m 50.003,21.5 c 0,0 -2.535,-0.375 -5.003,0"
   style="fill:#91bae1"
   inkscape:connector-curvature="0" />

			<path
   id="path823"
   d="m 44.999,22.5 c -0.486,0 -0.912,-0.354 -0.987,-0.85 -0.083,-0.546 0.292,-1.056 0.838,-1.139 2.591,-0.394 5.19,-0.018 5.3,-10e-4 0.546,0.081 0.923,0.589 0.843,1.135 -0.08,0.547 -0.6,0.924 -1.135,0.844 C 49.833,22.486 47.434,22.143 45.151,22.488 45.1,22.496 45.049,22.5 44.999,22.5 Z"
   style="fill:#8697cb"
   inkscape:connector-curvature="0" />

		</g>

		<g
   id="g831">
			<path
   id="path827"
   d="m 8,19.5 c 0,-4.418 3.582,-8 8,-8 4.418,0 8,3.582 8,8"
   style="fill:#91bae1"
   inkscape:connector-curvature="0" />

			<path
   id="path829"
   d="m 24,20.5 c -0.553,0 -1,-0.447 -1,-1 0,-3.859 -3.141,-7 -7,-7 -3.859,0 -7,3.141 -7,7 0,0.553 -0.447,1 -1,1 -0.553,0 -1,-0.447 -1,-1 0,-4.963 4.037,-9 9,-9 4.963,0 9,4.037 9,9 0,0.553 -0.447,1 -1,1 z"
   style="fill:#8697cb"
   inkscape:connector-curvature="0" />

		</g>

	</g>

	<g
   id="g843">
		<circle
   id="circle835"
   r="12.5"
   cy="43"
   cx="30.5"
   style="fill:#b1d3ef" />

		<g
   id="g841">
			<path
   id="path837"
   d="m 40.193,43.519 c -0.55,-0.113 -1.068,0.246 -1.175,0.788 -0.82,4.168 -4.402,7.193 -8.519,7.193 -3.351,0 -6.347,-2.006 -7.789,-5 H 28 v -2 h -6 -1 -1 v 8 h 2 v -3.341 c 1.976,2.657 5.086,4.341 8.5,4.341 5.068,0 9.477,-3.704 10.481,-8.807 0.106,-0.542 -0.246,-1.068 -0.788,-1.174 z"
   style="fill:#556080"
   inkscape:connector-curvature="0" />

			<path
   id="path839"
   d="m 39,33.498 v 3.341 c -1.976,-2.657 -5.086,-4.341 -8.5,-4.341 -5.068,0 -9.477,3.704 -10.481,8.807 -0.106,0.542 0.246,1.068 0.788,1.174 0.55,0.113 1.068,-0.246 1.175,-0.788 0.82,-4.168 4.402,-7.193 8.519,-7.193 3.351,0 6.347,2.006 7.789,5 H 33 v 2 h 6 1 1 v -8 z"
   style="fill:#556080"
   inkscape:connector-curvature="0" />

		</g>

	</g>

</g>
      <g
         id="g847">
</g>
      <g
         id="g849">
</g>
      <g
         id="g851">
</g>
      <g
         id="g853">
</g>
      <g
         id="g855">
</g>
      <g
         id="g857">
</g>
      <g
         id="g859">
</g>
      <g
         id="g861">
</g>
      <g
         id="g863">
</g>
      <g
         id="g865">
</g>
      <g
         id="g867">
</g>
      <g
         id="g869">
</g>
      <g
         id="g871">
</g>
      <g
         id="g873">
</g>
      <g
         id="g875">
</g>
    </g>
    <g
       id="g1008"
       transform="matrix(0.26458333,0,0,0.26458333,98.424999,101.73749)">
      <g
         id="g941">
	<g
   id="g931">
		<path
   id="path917"
   d="M 44.636,52 H 9.364 C 4.745,52 1,48.255 1,43.636 V 8.364 C 1,3.745 4.745,0 9.364,0 H 44.636 C 49.255,0 53,3.745 53,8.364 V 43.636 C 53,48.255 49.255,52 44.636,52 Z"
   style="fill:#3abca7"
   inkscape:connector-curvature="0" />

		<path
   id="path919"
   d="M 45,14 H 27 c -0.553,0 -1,-0.447 -1,-1 0,-0.553 0.447,-1 1,-1 h 18 c 0.553,0 1,0.447 1,1 0,0.553 -0.447,1 -1,1 z"
   style="fill:#ffffff"
   inkscape:connector-curvature="0" />

		<path
   id="path921"
   d="M 45,28 H 27 c -0.553,0 -1,-0.447 -1,-1 0,-0.553 0.447,-1 1,-1 h 18 c 0.553,0 1,0.447 1,1 0,0.553 -0.447,1 -1,1 z"
   style="fill:#ffffff"
   inkscape:connector-curvature="0" />

		<path
   id="path923"
   d="M 45,42 H 27 c -0.553,0 -1,-0.447 -1,-1 0,-0.553 0.447,-1 1,-1 h 18 c 0.553,0 1,0.447 1,1 0,0.553 -0.447,1 -1,1 z"
   style="fill:#ffffff"
   inkscape:connector-curvature="0" />

		<path
   id="path925"
   d="m 13.07,17 c -0.209,0 -0.42,-0.065 -0.599,-0.2 L 7.9,13.371 C 7.458,13.04 7.368,12.413 7.7,11.972 c 0.331,-0.443 0.958,-0.53 1.399,-0.2 l 3.822,2.866 6.249,-7.288 c 0.359,-0.42 0.991,-0.468 1.409,-0.108 0.42,0.359 0.469,0.99 0.108,1.409 l -6.857,8 C 13.634,16.881 13.354,17 13.07,17 Z"
   style="fill:#ffffff"
   inkscape:connector-curvature="0" />

		<path
   id="path927"
   d="m 13.07,31 c -0.209,0 -0.42,-0.065 -0.599,-0.2 L 7.9,27.371 C 7.458,27.04 7.368,26.413 7.7,25.972 c 0.331,-0.443 0.958,-0.53 1.399,-0.2 l 3.822,2.866 6.248,-7.288 c 0.359,-0.42 0.991,-0.468 1.409,-0.108 0.42,0.359 0.469,0.99 0.108,1.409 l -6.857,8 C 13.634,30.881 13.354,31 13.07,31 Z"
   style="fill:#ffffff"
   inkscape:connector-curvature="0" />

		<path
   id="path929"
   d="m 13.07,45.999 c -0.209,0 -0.42,-0.065 -0.599,-0.2 L 7.9,42.37 C 7.458,42.039 7.368,41.412 7.7,40.971 8.031,40.528 8.658,40.44 9.099,40.771 l 3.822,2.866 6.248,-7.287 c 0.359,-0.42 0.991,-0.468 1.409,-0.108 0.42,0.359 0.469,0.99 0.108,1.409 l -6.857,7.999 c -0.195,0.23 -0.475,0.349 -0.759,0.349 z"
   style="fill:#ffffff"
   inkscape:connector-curvature="0" />

	</g>

	<g
   id="g939">
		<g
   id="g937">
			<path
   id="path933"
   d="M 50.045,45.111 C 49.994,41.175 46.882,38 43.046,38 c -2.568,0 -4.806,1.426 -6.025,3.546 -0.421,-0.141 -0.87,-0.22 -1.337,-0.22 -2.063,0 -3.785,1.492 -4.208,3.484 -1.754,0.865 -2.975,2.706 -2.975,4.831 0,2.947 2.343,5.359 5.208,5.359 h 10.775 c 0.061,0 0.119,-0.007 0.18,-0.009 0.06,0.002 0.119,0.009 0.18,0.009 h 4.31 C 51.818,55 54,52.755 54,50.011 c 0,-2.43 -1.712,-4.465 -3.955,-4.9 z"
   style="fill:#48a0dc"
   inkscape:connector-curvature="0" />

			<path
   id="path935"
   d="m 49.151,56 h -4.31 C 44.778,56 44.715,55.996 44.653,55.992 44.606,55.996 44.545,56 44.482,56 H 33.708 C 30.285,56 27.5,53.147 27.5,49.642 c 0,-2.262 1.209,-4.372 3.116,-5.503 0.686,-2.235 2.746,-3.813 5.066,-3.813 0.296,0 0.592,0.025 0.884,0.076 C 38.062,38.286 40.48,37 43.046,37 c 4.102,0 7.524,3.225 7.954,7.332 2.358,0.806 4,3.079 4,5.679 C 55,53.313 52.376,56 49.151,56 Z M 44.614,53.991 44.8,53.997 49.151,54 C 51.273,54 53,52.21 53,50.011 53,48.094 51.677,46.447 49.854,46.092 L 49.055,45.937 49.044,45.124 C 49.001,41.747 46.311,39 43.046,39 c -2.135,0 -4.063,1.139 -5.158,3.045 l -0.409,0.711 -0.777,-0.261 c -0.332,-0.112 -0.675,-0.169 -1.019,-0.169 -1.54,0 -2.898,1.133 -3.229,2.692 l -0.102,0.475 -0.435,0.214 C 30.448,46.432 29.5,47.976 29.5,49.642 29.5,52.045 31.388,54 33.708,54 Z"
   style="fill:#b1d3ef"
   inkscape:connector-curvature="0" />

		</g>

	</g>

</g>
      <g
         id="g943">
</g>
      <g
         id="g945">
</g>
      <g
         id="g947">
</g>
      <g
         id="g949">
</g>
      <g
         id="g951">
</g>
      <g
         id="g953">
</g>
      <g
         id="g955">
</g>
      <g
         id="g957">
</g>
      <g
         id="g959">
</g>
      <g
         id="g961">
</g>
      <g
         id="g963">
</g>
      <g
         id="g965">
</g>
      <g
         id="g967">
</g>
      <g
         id="g969">
</g>
      <g
         id="g971">
</g>
    </g>
    <g
       id="g1122"
       transform="matrix(0.26458333,0,0,0.26458333,122.23752,54.641668)">
      <g
         id="g1048">
	<g
   id="g1038">
		<path
   id="path1010"
   d="M 49.455,8 V 8 C 48.724,3.538 38.281,0 25.5,0 12.719,0 2.276,3.538 1.545,8 V 8 H 1.5 V 8.5 20 20.5 21 32 32.5 33 45 h 0.045 c 0.731,4.461 11.175,8 23.955,8 12.78,0 23.224,-3.539 23.955,-8 H 49.5 V 33 32.5 32 21 20.5 20 8.5 8 Z"
   style="fill:#545e73"
   inkscape:connector-curvature="0" />

		<g
   id="g1018">
			<path
   id="path1012"
   d="M 25.5,41 C 12.245,41 1.5,37.194 1.5,32.5 V 45 h 0.045 c 0.731,4.461 11.175,8 23.955,8 12.78,0 23.224,-3.539 23.955,-8 H 49.5 V 32.5 c 0,4.694 -10.745,8.5 -24,8.5 z"
   style="fill:#38454f"
   inkscape:connector-curvature="0" />

			<path
   id="path1014"
   d="m 1.5,32 v 0.5 c 0,-0.168 0.018,-0.334 0.045,-0.5 z"
   style="fill:#38454f"
   inkscape:connector-curvature="0" />

			<path
   id="path1016"
   d="m 49.455,32 c 0.027,0.166 0.045,0.332 0.045,0.5 V 32 Z"
   style="fill:#38454f"
   inkscape:connector-curvature="0" />

		</g>

		<g
   id="g1026">
			<path
   id="path1020"
   d="M 25.5,29 C 12.245,29 1.5,25.194 1.5,20.5 V 33 h 0.045 c 0.731,4.461 11.175,8 23.955,8 12.78,0 23.224,-3.539 23.955,-8 H 49.5 V 20.5 c 0,4.694 -10.745,8.5 -24,8.5 z"
   style="fill:#556080"
   inkscape:connector-curvature="0" />

			<path
   id="path1022"
   d="m 1.5,20 v 0.5 c 0,-0.168 0.018,-0.334 0.045,-0.5 z"
   style="fill:#556080"
   inkscape:connector-curvature="0" />

			<path
   id="path1024"
   d="m 49.455,20 c 0.027,0.166 0.045,0.332 0.045,0.5 V 20 Z"
   style="fill:#556080"
   inkscape:connector-curvature="0" />

		</g>

		<ellipse
   id="ellipse1028"
   ry="8.5"
   rx="24"
   cy="8.5"
   cx="25.5"
   style="fill:#91bae1" />

		<g
   id="g1036">
			<path
   id="path1030"
   d="M 25.5,17 C 12.245,17 1.5,13.194 1.5,8.5 V 21 h 0.045 c 0.731,4.461 11.175,8 23.955,8 12.78,0 23.224,-3.539 23.955,-8 H 49.5 V 8.5 c 0,4.694 -10.745,8.5 -24,8.5 z"
   style="fill:#8697cb"
   inkscape:connector-curvature="0" />

			<path
   id="path1032"
   d="M 1.5,8 V 8.5 C 1.5,8.332 1.518,8.166 1.545,8 Z"
   style="fill:#8697cb"
   inkscape:connector-curvature="0" />

			<path
   id="path1034"
   d="M 49.455,8 C 49.482,8.166 49.5,8.332 49.5,8.5 V 8 Z"
   style="fill:#8697cb"
   inkscape:connector-curvature="0" />

		</g>

	</g>

	<g
   id="g1046">
		<g
   id="g1044">
			<path
   id="path1040"
   d="M 49.545,45.111 C 49.494,41.175 46.382,38 42.546,38 c -2.568,0 -4.806,1.426 -6.025,3.546 -0.421,-0.141 -0.87,-0.22 -1.337,-0.22 -2.063,0 -3.785,1.492 -4.208,3.484 C 29.221,45.675 28,47.516 28,49.641 28,52.589 30.343,55 33.208,55 h 10.775 c 0.061,0 0.119,-0.007 0.18,-0.009 0.06,0.002 0.119,0.009 0.18,0.009 h 4.31 c 2.667,0 4.849,-2.245 4.849,-4.989 -0.002,-2.43 -1.714,-4.465 -3.957,-4.9 z"
   style="fill:#48a0dc"
   inkscape:connector-curvature="0" />

			<path
   id="path1042"
   d="m 48.651,56 h -4.31 C 44.278,56 44.215,55.996 44.153,55.992 44.106,55.996 44.045,56 43.982,56 H 33.208 C 29.785,56 27,53.147 27,49.642 c 0,-2.262 1.209,-4.372 3.116,-5.503 0.686,-2.235 2.746,-3.813 5.066,-3.813 0.296,0 0.592,0.025 0.884,0.076 C 37.562,38.286 39.98,37 42.546,37 c 4.102,0 7.524,3.225 7.954,7.332 2.358,0.806 4,3.079 4,5.679 C 54.5,53.313 51.876,56 48.651,56 Z M 44.114,53.991 44.3,53.997 48.651,54 c 2.122,0 3.849,-1.79 3.849,-3.989 0,-1.917 -1.323,-3.564 -3.146,-3.919 L 48.555,45.937 48.544,45.124 C 48.501,41.747 45.811,39 42.546,39 c -2.135,0 -4.063,1.139 -5.158,3.045 l -0.409,0.711 -0.777,-0.261 c -0.332,-0.112 -0.675,-0.169 -1.019,-0.169 -1.54,0 -2.898,1.133 -3.229,2.692 l -0.102,0.475 -0.435,0.214 C 29.948,46.432 29,47.976 29,49.642 29,52.045 30.888,54 33.208,54 Z"
   style="fill:#b1d3ef"
   inkscape:connector-curvature="0" />

		</g>

	</g>

</g>
      <g
         id="g1050">
</g>
      <g
         id="g1052">
</g>
      <g
         id="g1054">
</g>
      <g
         id="g1056">
</g>
      <g
         id="g1058">
</g>
      <g
         id="g1060">
</g>
      <g
         id="g1062">
</g>
      <g
         id="g1064">
</g>
      <g
         id="g1066">
</g>
      <g
         id="g1068">
</g>
      <g
         id="g1070">
</g>
      <g
         id="g1072">
</g>
      <g
         id="g1074">
</g>
      <g
         id="g1076">
</g>
      <g
         id="g1078">
</g>
    </g>
    <g
       id="g1302"
       transform="matrix(0.26458333,0,0,0.26458333,74.215622,54.244793)">
      <g
         id="g1206">
	<g
   id="g1196">
		<path
   id="path1124"
   d="M 54.892,19 H 4.108 C 2.116,19 0.5,17.384 0.5,15.392 V 3.608 C 0.5,1.616 2.116,0 4.108,0 H 54.891 C 56.884,0 58.5,1.616 58.5,3.608 V 15.391 C 58.5,17.384 56.884,19 54.892,19 Z"
   style="fill:#556080"
   inkscape:connector-curvature="0" />

		<path
   id="path1126"
   d="M 54.892,38 H 4.108 C 2.116,38 0.5,36.384 0.5,34.392 V 22.608 C 0.5,20.616 2.116,19 4.108,19 h 50.783 c 1.993,0 3.608,1.616 3.608,3.608 V 34.391 C 58.5,36.384 56.884,38 54.892,38 Z"
   style="fill:#38454f"
   inkscape:connector-curvature="0" />

		<path
   id="path1128"
   d="M 54.892,57 H 4.108 C 2.116,57 0.5,55.384 0.5,53.392 V 41.608 C 0.5,39.616 2.116,38 4.108,38 h 50.783 c 1.993,0 3.608,1.616 3.608,3.608 V 53.391 C 58.5,55.384 56.884,57 54.892,57 Z"
   style="fill:#556080"
   inkscape:connector-curvature="0" />

		<circle
   id="circle1130"
   r="3.5"
   cy="9.5"
   cx="10"
   style="fill:#8697cb" />

		<circle
   id="circle1132"
   r="1"
   cy="8"
   cx="49.5"
   style="fill:#8697cb" />

		<circle
   id="circle1134"
   r="1"
   cy="8"
   cx="45.5"
   style="fill:#8697cb" />

		<circle
   id="circle1136"
   r="1"
   cy="11"
   cx="51.5"
   style="fill:#8697cb" />

		<circle
   id="circle1138"
   r="1"
   cy="11"
   cx="47.5"
   style="fill:#8697cb" />

		<circle
   id="circle1140"
   r="1"
   cy="8"
   cx="41.5"
   style="fill:#8697cb" />

		<circle
   id="circle1142"
   r="1"
   cy="11"
   cx="43.5"
   style="fill:#8697cb" />

		<circle
   id="circle1144"
   r="1"
   cy="8"
   cx="37.5"
   style="fill:#8697cb" />

		<circle
   id="circle1146"
   r="1"
   cy="11"
   cx="39.5"
   style="fill:#8697cb" />

		<circle
   id="circle1148"
   r="1"
   cy="8"
   cx="33.5"
   style="fill:#8697cb" />

		<circle
   id="circle1150"
   r="1"
   cy="11"
   cx="35.5"
   style="fill:#8697cb" />

		<circle
   id="circle1152"
   r="3.5"
   cy="28.5"
   cx="10"
   style="fill:#8697cb" />

		<circle
   id="circle1154"
   r="1"
   cy="27"
   cx="49.5"
   style="fill:#8697cb" />

		<circle
   id="circle1156"
   r="1"
   cy="27"
   cx="45.5"
   style="fill:#8697cb" />

		<circle
   id="circle1158"
   r="1"
   cy="30"
   cx="51.5"
   style="fill:#8697cb" />

		<circle
   id="circle1160"
   r="1"
   cy="30"
   cx="47.5"
   style="fill:#8697cb" />

		<circle
   id="circle1162"
   r="1"
   cy="27"
   cx="41.5"
   style="fill:#8697cb" />

		<circle
   id="circle1164"
   r="1"
   cy="30"
   cx="43.5"
   style="fill:#8697cb" />

		<circle
   id="circle1166"
   r="1"
   cy="27"
   cx="37.5"
   style="fill:#8697cb" />

		<circle
   id="circle1168"
   r="1"
   cy="30"
   cx="39.5"
   style="fill:#8697cb" />

		<circle
   id="circle1170"
   r="1"
   cy="27"
   cx="33.5"
   style="fill:#8697cb" />

		<circle
   id="circle1172"
   r="1"
   cy="30"
   cx="35.5"
   style="fill:#8697cb" />

		<circle
   id="circle1174"
   r="3.5"
   cy="47.5"
   cx="10"
   style="fill:#8697cb" />

		<circle
   id="circle1176"
   r="1"
   cy="46"
   cx="49.5"
   style="fill:#8697cb" />

		<circle
   id="circle1178"
   r="1"
   cy="46"
   cx="45.5"
   style="fill:#8697cb" />

		<circle
   id="circle1180"
   r="1"
   cy="49"
   cx="51.5"
   style="fill:#8697cb" />

		<circle
   id="circle1182"
   r="1"
   cy="49"
   cx="47.5"
   style="fill:#8697cb" />

		<circle
   id="circle1184"
   r="1"
   cy="46"
   cx="41.5"
   style="fill:#8697cb" />

		<circle
   id="circle1186"
   r="1"
   cy="49"
   cx="43.5"
   style="fill:#8697cb" />

		<circle
   id="circle1188"
   r="1"
   cy="46"
   cx="37.5"
   style="fill:#8697cb" />

		<circle
   id="circle1190"
   r="1"
   cy="49"
   cx="39.5"
   style="fill:#8697cb" />

		<circle
   id="circle1192"
   r="1"
   cy="46"
   cx="33.5"
   style="fill:#8697cb" />

		<circle
   id="circle1194"
   r="1"
   cy="49"
   cx="35.5"
   style="fill:#8697cb" />

	</g>

	<g
   id="g1204">
		<g
   id="g1202">
			<path
   id="path1198"
   d="M 53.545,48.111 C 53.494,44.175 50.382,41 46.546,41 c -2.568,0 -4.806,1.426 -6.025,3.546 -0.421,-0.141 -0.87,-0.22 -1.337,-0.22 -2.063,0 -3.785,1.492 -4.208,3.484 C 33.221,48.675 32,50.516 32,52.641 32,55.589 34.343,58 37.208,58 h 10.775 c 0.061,0 0.119,-0.007 0.18,-0.009 0.06,0.002 0.119,0.009 0.18,0.009 h 4.31 c 2.667,0 4.849,-2.245 4.849,-4.989 -0.002,-2.43 -1.714,-4.465 -3.957,-4.9 z"
   style="fill:#48a0dc"
   inkscape:connector-curvature="0" />

			<path
   id="path1200"
   d="m 52.651,59 h -4.31 C 48.278,59 48.215,58.996 48.153,58.992 48.106,58.996 48.045,59 47.982,59 H 37.208 C 33.785,59 31,56.147 31,52.642 c 0,-2.262 1.209,-4.372 3.116,-5.503 0.686,-2.235 2.746,-3.813 5.066,-3.813 0.296,0 0.592,0.025 0.884,0.076 C 41.562,41.286 43.98,40 46.546,40 c 4.102,0 7.524,3.225 7.954,7.332 2.358,0.806 4,3.079 4,5.679 C 58.5,56.313 55.876,59 52.651,59 Z M 48.114,56.991 48.3,56.997 52.651,57 c 2.122,0 3.849,-1.79 3.849,-3.989 0,-1.917 -1.323,-3.564 -3.146,-3.919 L 52.555,48.937 52.544,48.124 C 52.501,44.747 49.811,42 46.546,42 c -2.135,0 -4.063,1.139 -5.158,3.045 l -0.409,0.711 -0.777,-0.261 c -0.332,-0.112 -0.675,-0.169 -1.019,-0.169 -1.54,0 -2.898,1.133 -3.229,2.692 l -0.102,0.475 -0.435,0.214 C 33.948,49.432 33,50.976 33,52.642 33,55.045 34.888,57 37.208,57 Z"
   style="fill:#b1d3ef"
   inkscape:connector-curvature="0" />

		</g>

	</g>

</g>
      <g
         id="g1208">
</g>
      <g
         id="g1210">
</g>
      <g
         id="g1212">
</g>
      <g
         id="g1214">
</g>
      <g
         id="g1216">
</g>
      <g
         id="g1218">
</g>
      <g
         id="g1220">
</g>
      <g
         id="g1222">
</g>
      <g
         id="g1224">
</g>
      <g
         id="g1226">
</g>
      <g
         id="g1228">
</g>
      <g
         id="g1230">
</g>
      <g
         id="g1232">
</g>
      <g
         id="g1234">
</g>
      <g
         id="g1236">
</g>
    </g>
    <path
       style="fill:none;fill-rule:evenodd;stroke:#000000;stroke-width:1.05833328;stroke-linecap:butt;stroke-linejoin:miter;stroke-miterlimit:4;stroke-dasharray:1.05833327, 1.05833327;stroke-dashoffset:0;stroke-opacity:0.50196078"
       d="M 113.77083,77.395836 124.35416,72.10417"
       id="path1306"
       inkscape:connector-curvature="0" />
    <path
       style="fill:none;fill-rule:evenodd;stroke:#000000;stroke-width:1.05833328;stroke-linecap:butt;stroke-linejoin:miter;stroke-miterlimit:4;stroke-dasharray:1.05833327, 1.05833327;stroke-dashoffset:0;stroke-opacity:0.50196078"
       d="M 97.895832,77.395836 87.312499,72.10417"
       id="path1308"
       inkscape:connector-curvature="0" />
    <path
       style="fill:none;fill-rule:evenodd;stroke:#000000;stroke-width:1.05833328;stroke-linecap:butt;stroke-linejoin:miter;stroke-miterlimit:4;stroke-dasharray:1.05833327, 1.05833327;stroke-dashoffset:0;stroke-opacity:0.5"
       d="M 105.83333,93.270833 V 98.5625"
       id="path1310"
       inkscape:connector-curvature="0" />
  </g>
</svg>
