<?xml version="1.0" encoding="UTF-8" standalone="no"?>
<!-- Created with Inkscape (http://www.inkscape.org/) -->

<svg
   xmlns:dc="http://purl.org/dc/elements/1.1/"
   xmlns:cc="http://creativecommons.org/ns#"
   xmlns:rdf="http://www.w3.org/1999/02/22-rdf-syntax-ns#"
   xmlns:svg="http://www.w3.org/2000/svg"
   xmlns="http://www.w3.org/2000/svg"
   xmlns:sodipodi="http://sodipodi.sourceforge.net/DTD/sodipodi-0.dtd"
   xmlns:inkscape="http://www.inkscape.org/namespaces/inkscape"
   width="1920"
   height="900"
   viewBox="0 0 508 238.12501"
   version="1.1"
   id="svg8"
   inkscape:version="0.92.2 2405546, 2018-03-11"
   sodipodi:docname="sharing_state.svg"
   inkscape:export-filename="/home/fin/Documents/Uni/WAMP-Router/sharing_state.png"
   inkscape:export-xdpi="300"
   inkscape:export-ydpi="300">
  <defs
     id="defs2" />
  <sodipodi:namedview
     id="base"
     pagecolor="#ffffff"
     bordercolor="#666666"
     borderopacity="1.0"
     inkscape:pageopacity="0.0"
     inkscape:pageshadow="2"
     inkscape:zoom="0.35355339"
     inkscape:cx="836.06711"
     inkscape:cy="800.41924"
     inkscape:document-units="mm"
     inkscape:current-layer="layer1"
     showgrid="true"
     inkscape:snap-bbox="true"
     inkscape:bbox-paths="true"
     inkscape:bbox-nodes="true"
     inkscape:snap-bbox-edge-midpoints="true"
     inkscape:snap-bbox-midpoints="true"
     inkscape:object-nodes="false"
     fit-margin-top="5"
     fit-margin-left="5"
     fit-margin-right="5"
     fit-margin-bottom="5"
     inkscape:window-width="1440"
     inkscape:window-height="1555"
     inkscape:window-x="0"
     inkscape:window-y="30"
     inkscape:window-maximized="0"
     units="px">
    <inkscape:grid
       type="xygrid"
       id="grid1304"
       spacingx="8.4666668"
       spacingy="8.4666668"
       originx="0"
       originy="0"
       empspacing="8" />
  </sodipodi:namedview>
  <metadata
     id="metadata5">
    <rdf:RDF>
      <cc:Work
         rdf:about="">
        <dc:format>image/svg+xml</dc:format>
        <dc:type
           rdf:resource="http://purl.org/dc/dcmitype/StillImage" />
        <dc:title></dc:title>
      </cc:Work>
    </rdf:RDF>
  </metadata>
  <g
     inkscape:label="Layer 1"
     inkscape:groupmode="layer"
     id="layer1"
     transform="translate(-69.347914,116.57085)">
    <g
       id="g1185"
       transform="matrix(0.84666675,0,0,0.76969698,299.53544,36.887482)">
      <path
         id="path1130"
         d="M 52.354,8.51 C 51.196,4.22 42.577,0 27.5,0 12.423,0 3.803,4.22 2.646,8.51 2.562,8.657 2.5,8.818 2.5,9 V 9.5 21 21.5 22 33 33.5 34 46 c 0,0.162 0.043,0.315 0.117,0.451 C 3.798,51.346 14.364,55 27.5,55 40.606,55 51.155,51.361 52.375,46.484 52.455,46.341 52.5,46.176 52.5,46 V 34 33.5 33 22 21.5 21 9.5 9 c 0,-0.182 -0.062,-0.343 -0.146,-0.49 z m -1.933,25.475 c -0.028,0.121 -0.067,0.241 -0.116,0.363 -0.04,0.099 -0.089,0.198 -0.143,0.297 -0.067,0.123 -0.142,0.246 -0.231,0.369 -0.066,0.093 -0.141,0.185 -0.219,0.277 -0.111,0.131 -0.229,0.262 -0.363,0.392 -0.081,0.079 -0.17,0.157 -0.26,0.236 -0.164,0.143 -0.335,0.285 -0.526,0.426 -0.082,0.061 -0.17,0.12 -0.257,0.18 -0.226,0.156 -0.462,0.311 -0.721,0.463 -0.068,0.041 -0.141,0.08 -0.212,0.12 -0.298,0.168 -0.609,0.335 -0.945,0.497 -0.043,0.021 -0.088,0.041 -0.132,0.061 -0.375,0.177 -0.767,0.351 -1.186,0.519 -0.012,0.005 -0.024,0.009 -0.036,0.014 -2.271,0.907 -5.176,1.67 -8.561,2.17 -0.017,0.002 -0.034,0.004 -0.051,0.007 -0.658,0.097 -1.333,0.183 -2.026,0.259 -0.113,0.012 -0.232,0.02 -0.346,0.032 -0.605,0.063 -1.217,0.121 -1.847,0.167 -0.288,0.021 -0.59,0.031 -0.883,0.049 -0.474,0.028 -0.943,0.059 -1.429,0.076 C 29.137,40.984 28.327,41 27.5,41 26.673,41 25.863,40.984 25.068,40.956 24.582,40.939 24.113,40.907 23.639,40.88 23.346,40.863 23.044,40.852 22.756,40.831 22.126,40.785 21.514,40.727 20.909,40.664 20.795,40.652 20.676,40.644 20.563,40.632 19.87,40.556 19.195,40.469 18.537,40.373 18.52,40.371 18.503,40.369 18.486,40.366 15.101,39.866 12.196,39.103 9.925,38.196 9.913,38.192 9.901,38.187 9.889,38.182 9.47,38.014 9.077,37.84 8.703,37.663 8.66,37.642 8.614,37.622 8.571,37.602 8.235,37.44 7.924,37.274 7.626,37.105 7.556,37.065 7.482,37.026 7.414,36.985 7.155,36.833 6.919,36.678 6.693,36.522 6.607,36.462 6.518,36.403 6.436,36.342 6.245,36.201 6.074,36.059 5.91,35.916 5.821,35.838 5.731,35.76 5.65,35.68 5.516,35.55 5.398,35.42 5.287,35.288 5.209,35.196 5.134,35.104 5.068,35.011 4.98,34.888 4.905,34.765 4.837,34.642 4.783,34.543 4.735,34.444 4.694,34.345 4.645,34.224 4.606,34.103 4.578,33.982 4.541,33.823 4.5,33.661 4.5,33.5 4.5,33.387 4.513,33.274 4.531,33.162 4.556,33.011 4.542,32.86 4.5,32.717 v -7.424 c 0.028,0.026 0.063,0.051 0.092,0.077 0.218,0.192 0.44,0.383 0.69,0.567 C 9.049,28.786 16.582,31 27.5,31 c 10.872,0 18.386,-2.196 22.169,-5.028 0.302,-0.22 0.574,-0.447 0.83,-0.678 L 50.5,25.293 v 7.424 c -0.042,0.143 -0.056,0.294 -0.031,0.445 0.019,0.112 0.031,0.225 0.031,0.338 0,0.161 -0.041,0.323 -0.079,0.485 z M 50.5,13.293 v 7.424 c -0.042,0.143 -0.056,0.294 -0.031,0.445 0.019,0.112 0.031,0.225 0.031,0.338 0,0.161 -0.041,0.323 -0.079,0.485 -0.028,0.121 -0.067,0.241 -0.116,0.363 -0.04,0.099 -0.089,0.198 -0.143,0.297 -0.067,0.123 -0.142,0.246 -0.231,0.369 -0.066,0.093 -0.141,0.185 -0.219,0.277 -0.111,0.131 -0.229,0.262 -0.363,0.392 -0.081,0.079 -0.17,0.157 -0.26,0.236 -0.164,0.143 -0.335,0.285 -0.526,0.426 -0.082,0.061 -0.17,0.12 -0.257,0.18 -0.226,0.156 -0.462,0.311 -0.721,0.463 -0.068,0.041 -0.141,0.08 -0.212,0.12 -0.298,0.168 -0.609,0.335 -0.945,0.497 -0.043,0.021 -0.088,0.041 -0.132,0.061 -0.375,0.177 -0.767,0.351 -1.186,0.519 -0.012,0.005 -0.024,0.009 -0.036,0.014 -2.271,0.907 -5.176,1.67 -8.561,2.17 -0.017,0.002 -0.034,0.004 -0.051,0.007 -0.658,0.097 -1.333,0.183 -2.026,0.259 -0.113,0.012 -0.232,0.02 -0.346,0.032 -0.605,0.063 -1.217,0.121 -1.847,0.167 -0.288,0.021 -0.59,0.031 -0.883,0.049 -0.474,0.028 -0.943,0.059 -1.429,0.076 C 29.137,28.984 28.327,29 27.5,29 26.673,29 25.863,28.984 25.068,28.956 24.582,28.939 24.113,28.907 23.639,28.88 23.346,28.863 23.044,28.852 22.756,28.831 22.126,28.785 21.514,28.727 20.909,28.664 20.795,28.652 20.676,28.644 20.563,28.632 19.87,28.556 19.195,28.469 18.537,28.373 18.52,28.371 18.503,28.369 18.486,28.366 15.101,27.866 12.196,27.103 9.925,26.196 9.913,26.192 9.901,26.187 9.889,26.182 9.47,26.014 9.077,25.84 8.703,25.663 8.66,25.642 8.614,25.622 8.571,25.602 8.235,25.44 7.924,25.274 7.626,25.105 7.556,25.065 7.482,25.026 7.414,24.985 7.155,24.833 6.919,24.678 6.693,24.522 6.607,24.462 6.518,24.403 6.436,24.342 6.245,24.201 6.074,24.059 5.91,23.916 5.821,23.838 5.731,23.76 5.65,23.68 5.516,23.55 5.398,23.42 5.287,23.288 5.209,23.196 5.134,23.104 5.068,23.011 4.98,22.888 4.905,22.765 4.837,22.642 4.783,22.543 4.735,22.444 4.694,22.345 4.645,22.224 4.606,22.103 4.578,21.982 4.541,21.823 4.5,21.661 4.5,21.5 4.5,21.387 4.513,21.274 4.531,21.162 4.556,21.011 4.542,20.86 4.5,20.717 v -7.424 c 0.12,0.109 0.257,0.216 0.387,0.324 0.072,0.06 0.139,0.12 0.215,0.18 0.3,0.236 0.624,0.469 0.975,0.696 0.073,0.047 0.155,0.093 0.231,0.14 0.294,0.183 0.605,0.362 0.932,0.538 0.121,0.065 0.242,0.129 0.367,0.193 0.365,0.186 0.748,0.367 1.151,0.542 0.066,0.029 0.126,0.059 0.193,0.087 0.469,0.199 0.967,0.389 1.485,0.573 0.143,0.051 0.293,0.099 0.44,0.149 0.412,0.139 0.838,0.272 1.279,0.401 0.159,0.046 0.315,0.094 0.478,0.138 0.585,0.162 1.189,0.316 1.823,0.458 0.087,0.02 0.181,0.036 0.269,0.055 0.559,0.122 1.139,0.235 1.735,0.341 0.202,0.036 0.407,0.07 0.613,0.104 0.567,0.093 1.151,0.178 1.75,0.256 0.154,0.02 0.301,0.043 0.457,0.062 0.744,0.09 1.514,0.167 2.305,0.233 0.195,0.016 0.398,0.028 0.596,0.042 0.633,0.046 1.28,0.084 1.942,0.114 0.241,0.011 0.481,0.022 0.727,0.031 0.862,0.029 1.74,0.05 2.65,0.05 0.91,0 1.788,-0.021 2.65,-0.05 0.245,-0.009 0.485,-0.02 0.727,-0.031 0.662,-0.03 1.309,-0.068 1.942,-0.114 0.198,-0.015 0.4,-0.026 0.596,-0.042 0.791,-0.065 1.561,-0.143 2.305,-0.233 0.156,-0.019 0.303,-0.042 0.457,-0.062 0.599,-0.078 1.182,-0.163 1.75,-0.256 0.206,-0.034 0.411,-0.068 0.613,-0.104 0.596,-0.106 1.176,-0.219 1.735,-0.341 0.088,-0.019 0.182,-0.036 0.269,-0.055 0.634,-0.142 1.238,-0.297 1.823,-0.458 0.163,-0.045 0.319,-0.092 0.478,-0.138 0.441,-0.129 0.867,-0.262 1.279,-0.401 0.147,-0.05 0.297,-0.098 0.44,-0.149 0.518,-0.184 1.017,-0.374 1.485,-0.573 0.067,-0.028 0.127,-0.058 0.193,-0.087 0.403,-0.176 0.786,-0.356 1.151,-0.542 0.125,-0.064 0.247,-0.128 0.367,-0.193 0.327,-0.175 0.638,-0.354 0.932,-0.538 0.076,-0.047 0.158,-0.093 0.231,-0.14 0.351,-0.227 0.675,-0.459 0.975,-0.696 0.075,-0.06 0.142,-0.12 0.215,-0.18 0.13,-0.108 0.267,-0.215 0.387,-0.324 z M 27.5,2 c 13.555,0 23,3.952 23,7.5 0,3.548 -9.445,7.5 -23,7.5 C 13.945,17 4.5,13.048 4.5,9.5 4.5,5.952 13.945,2 27.5,2 Z m 23,43.703 c -0.014,0.044 -0.024,0.089 -0.032,0.135 C 49.901,49.297 40.536,53 27.5,53 14.464,53 5.099,49.297 4.532,45.838 4.524,45.793 4.513,45.749 4.5,45.707 v -8.414 c 0.028,0.026 0.063,0.051 0.092,0.077 0.218,0.192 0.44,0.383 0.69,0.567 C 9.049,40.786 16.582,43 27.5,43 c 10.872,0 18.386,-2.196 22.169,-5.028 0.302,-0.22 0.574,-0.447 0.83,-0.678 L 50.5,37.293 Z"
         inkscape:connector-curvature="0" />
      <g
         id="g1132">
</g>
      <g
         id="g1134">
</g>
      <g
         id="g1136">
</g>
      <g
         id="g1138">
</g>
      <g
         id="g1140">
</g>
      <g
         id="g1142">
</g>
      <g
         id="g1144">
</g>
      <g
         id="g1146">
</g>
      <g
         id="g1148">
</g>
      <g
         id="g1150">
</g>
      <g
         id="g1152">
</g>
      <g
         id="g1154">
</g>
      <g
         id="g1156">
</g>
      <g
         id="g1158">
</g>
      <g
         id="g1160">
</g>
    </g>
    <g
       id="g1219"
       transform="matrix(0.09030893,0,0,0.08268213,147.82878,36.887482)">
      <path
         id="path1187"
         d="m 256.531,221.951 c -4.142,0 -7.5,3.358 -7.5,7.5 v 12.794 l -4.64,-4.781 c -2.885,-2.972 -7.633,-3.043 -10.605,-0.158 -2.972,2.885 -3.043,7.633 -0.158,10.605 l 17.522,18.053 c 1.413,1.456 3.354,2.276 5.382,2.276 h 0.058 c 2.047,-0.016 4,-0.868 5.404,-2.36 l 16.992,-18.053 c 2.839,-3.016 2.694,-7.763 -0.321,-10.602 -3.016,-2.838 -7.761,-2.696 -10.603,0.321 l -4.029,4.281 v -12.378 c -0.002,-4.14 -3.36,-7.498 -7.502,-7.498 z"
         inkscape:connector-curvature="0" />
      <path
         id="path1189"
         d="M 355.378,435.37 H 157.684 c -9.911,0 -17.973,8.063 -17.973,17.974 v 40.683 c 0,9.911 8.063,17.974 17.973,17.974 h 54.648 c 4.142,0 7.5,-3.358 7.5,-7.5 0,-4.142 -3.358,-7.5 -7.5,-7.5 h -54.648 c -1.639,0 -2.973,-1.334 -2.973,-2.974 v -40.683 c 0,-1.64 1.334,-2.974 2.973,-2.974 h 197.694 c 1.64,0 2.974,1.334 2.974,2.974 v 40.683 c 0,1.64 -1.334,2.974 -2.974,2.974 H 247.084 c -4.142,0 -7.5,3.358 -7.5,7.5 0,4.142 3.358,7.5 7.5,7.5 h 108.294 c 9.911,0 17.974,-8.063 17.974,-17.974 v -40.683 c 0,-9.911 -8.063,-17.974 -17.974,-17.974 z"
         inkscape:connector-curvature="0" />
      <path
         id="path1191"
         d="M 355.378,135.401 H 209.75 c -4.142,0 -7.5,3.358 -7.5,7.5 0,4.142 3.358,7.5 7.5,7.5 h 145.628 c 1.64,0 2.974,1.334 2.974,2.973 v 40.684 c 0,1.639 -1.334,2.973 -2.974,2.973 H 157.684 c -1.639,0 -2.973,-1.334 -2.973,-2.973 v -40.684 c 0,-1.639 1.334,-2.973 2.973,-2.973 H 175 c 4.142,0 7.5,-3.358 7.5,-7.5 0,-4.142 -3.358,-7.5 -7.5,-7.5 h -17.315 c -9.911,0 -17.973,8.063 -17.973,17.973 v 40.684 c 0,9.911 8.063,17.973 17.973,17.973 h 197.694 c 9.911,0 17.974,-8.063 17.974,-17.973 v -40.684 c -0.001,-9.911 -8.064,-17.973 -17.975,-17.973 z"
         inkscape:connector-curvature="0" />
      <path
         id="path1193"
         d="m 157.845,327.184 c -0.031,7.438 4.414,14.021 11.323,16.773 l 72.889,29.029 c 4.667,1.858 9.57,2.788 14.474,2.788 4.904,0 9.807,-0.929 14.474,-2.788 l 72.888,-29.029 c 6.91,-2.751 11.355,-9.335 11.324,-16.773 -0.031,-7.438 -4.531,-13.984 -11.464,-16.678 l -27.43,-10.659 c -3.865,-1.5 -8.208,0.414 -9.708,4.274 -1.5,3.861 0.414,8.207 4.274,9.707 l 27.431,10.659 c 1.643,0.639 1.894,2.003 1.896,2.759 0.002,0.756 -0.236,2.123 -1.874,2.775 l -72.889,29.029 c -5.754,2.292 -12.092,2.292 -17.847,0 l -72.889,-29.029 c -1.637,-0.652 -1.876,-2.019 -1.873,-2.775 0.003,-0.756 0.254,-2.121 1.896,-2.759 L 247.794,296.1 c 5.633,-2.188 11.837,-2.188 17.47,0 l 13.399,5.207 c 3.865,1.502 8.208,-0.414 9.708,-4.274 1.5,-3.86 -0.414,-8.207 -4.274,-9.707 l -13.399,-5.207 c -9.136,-3.551 -19.2,-3.551 -28.336,0 l -73.054,28.387 c -6.931,2.694 -11.431,9.241 -11.463,16.678 z"
         inkscape:connector-curvature="0" />
      <path
         id="path1195"
         d="m 256.531,80.709 c -4.142,0 -7.5,3.358 -7.5,7.5 v 12.794 l -4.64,-4.781 c -2.885,-2.972 -7.633,-3.043 -10.605,-0.158 -2.972,2.885 -3.043,7.633 -0.158,10.605 l 17.522,18.054 c 1.413,1.456 3.354,2.276 5.382,2.276 h 0.058 c 2.048,-0.016 4,-0.869 5.404,-2.36 l 16.992,-18.054 c 2.839,-3.016 2.694,-7.763 -0.321,-10.602 -3.016,-2.838 -7.761,-2.695 -10.603,0.321 l -4.029,4.281 V 88.209 c -0.002,-4.142 -3.36,-7.5 -7.502,-7.5 z"
         inkscape:connector-curvature="0" />
      <path
         id="path1197"
         d="m 425.53,320.169 h -36.253 c -4.143,0 -7.5,3.358 -7.5,7.5 0,4.142 3.357,7.5 7.5,7.5 h 36.253 c 1.64,0 2.974,1.334 2.974,2.974 v 125.068 c 0,1.64 -1.334,2.974 -2.974,2.974 h -18.484 l 4.508,-4.375 c 2.973,-2.885 3.043,-7.633 0.158,-10.605 -2.885,-2.972 -7.633,-3.043 -10.605,-0.158 l -18.054,17.522 c -1.47,1.426 -2.292,3.392 -2.276,5.439 0.016,2.047 0.868,4 2.359,5.404 l 18.054,16.992 c 1.448,1.363 3.296,2.039 5.14,2.039 1.995,0 3.986,-0.792 5.463,-2.36 2.839,-3.016 2.694,-7.763 -0.321,-10.602 l -4.564,-4.295 h 18.623 c 9.911,0 17.974,-8.063 17.974,-17.974 V 338.143 c -0.002,-9.911 -8.064,-17.974 -17.975,-17.974 z"
         inkscape:connector-curvature="0" />
      <path
         id="path1199"
         d="m 100.288,202.697 c 1.471,1.515 3.425,2.276 5.382,2.276 1.882,0 3.766,-0.704 5.223,-2.118 l 18.053,-17.522 c 1.47,-1.426 2.292,-3.392 2.276,-5.439 -0.016,-2.048 -0.869,-4 -2.36,-5.404 l -18.053,-16.992 c -3.017,-2.839 -7.763,-2.696 -10.602,0.321 -2.839,3.016 -2.695,7.763 0.321,10.602 l 4.564,4.296 H 86.47 c -9.911,0 -17.974,8.063 -17.974,17.973 v 125.068 c 0,9.911 8.063,17.974 17.974,17.974 h 36.253 c 4.142,0 7.5,-3.358 7.5,-7.5 0,-4.142 -3.358,-7.5 -7.5,-7.5 H 86.47 c -1.64,0 -2.974,-1.334 -2.974,-2.974 V 190.69 c 0,-1.639 1.334,-2.973 2.974,-2.973 h 18.484 l -4.508,4.375 c -2.972,2.885 -3.042,7.633 -0.158,10.605 z"
         inkscape:connector-curvature="0" />
      <path
         id="path1201"
         d="M 355.378,0 H 157.684 c -9.911,0 -17.973,8.063 -17.973,17.974 v 40.683 c 0,9.911 8.063,17.974 17.973,17.974 h 197.694 c 9.911,0 17.974,-8.063 17.974,-17.974 V 17.974 C 373.352,8.063 365.289,0 355.378,0 Z m 2.974,58.657 c 0,1.64 -1.334,2.974 -2.974,2.974 H 157.684 c -1.639,0 -2.973,-1.334 -2.973,-2.974 V 17.974 c 0,-1.64 1.334,-2.974 2.973,-2.974 h 197.694 c 1.64,0 2.974,1.334 2.974,2.974 z"
         inkscape:connector-curvature="0" />
    </g>
    <g
       id="g1300"
       transform="matrix(0.08268197,0,0,0.08268229,302.18125,-90.112603)">
      <g
         id="g1225">
	<g
   id="g1223">
		<path
   id="path1221"
   d="M 504.5,248.501 H 383.742 v -17.064 h 32.581 c 4.142,0 7.5,-3.358 7.5,-7.5 0,-4.142 -3.358,-7.5 -7.5,-7.5 h -32.581 v -17.065 h 22.62 c 8.427,0 16.35,-3.281 22.308,-9.24 l 49.326,-49.326 c 3.214,1.601 6.777,2.453 10.473,2.453 6.286,0 12.195,-2.448 16.64,-6.892 4.445,-4.445 6.893,-10.354 6.893,-16.64 0,-6.286 -2.448,-12.195 -6.893,-16.64 -4.444,-4.445 -10.354,-6.893 -16.64,-6.893 -6.286,0 -12.195,2.448 -16.64,6.892 -4.445,4.445 -6.893,10.354 -6.893,16.64 0,3.696 0.852,7.259 2.453,10.473 l -49.326,49.326 c -3.125,3.125 -7.281,4.847 -11.702,4.847 h -22.62 v -16.548 c 0,-21.816 -17.749,-39.564 -39.564,-39.564 H 327.629 V 61.865 c 9.308,-3.139 16.032,-11.946 16.032,-22.3 0,-12.976 -10.557,-23.532 -23.532,-23.532 -12.975,0 -23.532,10.557 -23.532,23.532 0,10.354 6.724,19.16 16.032,22.3 v 66.394 H 295.565 V 95.678 c 0,-4.142 -3.358,-7.5 -7.5,-7.5 -4.142,0 -7.5,3.358 -7.5,7.5 v 32.581 H 263.5 V 7.501 c 0,-4.142 -3.358,-7.5 -7.5,-7.5 -4.142,0 -7.5,3.358 -7.5,7.5 V 128.259 H 231.436 V 95.678 c 0,-4.142 -3.358,-7.5 -7.5,-7.5 -4.142,0 -7.5,3.358 -7.5,7.5 v 32.581 H 199.372 V 105.64 c 0,-8.427 -3.282,-16.35 -9.241,-22.308 L 140.788,33.989 c 4.359,-8.801 2.898,-19.775 -4.421,-27.095 -9.176,-9.175 -24.105,-9.174 -33.28,0 -9.175,9.175 -9.175,24.104 0,33.28 4.588,4.587 10.614,6.881 16.64,6.881 3.588,0 7.17,-0.833 10.455,-2.46 l 49.343,49.344 c 3.126,3.125 4.847,7.281 4.847,11.701 v 22.619 h -16.548 c -3.345,0 -6.672,0.42 -9.888,1.247 -4.011,1.032 -6.426,5.121 -5.394,9.133 1.032,4.012 5.122,6.427 9.133,5.394 1.995,-0.513 4.063,-0.774 6.148,-0.774 h 176.354 c 13.545,0 24.564,11.02 24.564,24.564 v 176.355 c 0,2.083 -0.26,4.15 -0.772,6.143 -1.031,4.012 1.385,8.1 5.396,9.131 0.626,0.161 1.254,0.238 1.873,0.238 3.341,0 6.388,-2.249 7.258,-5.635 0.826,-3.212 1.245,-6.536 1.245,-9.878 v -16.548 h 66.394 c 3.139,9.308 11.946,16.032 22.3,16.032 12.976,0 23.532,-10.556 23.532,-23.532 0,-12.976 -10.557,-23.532 -23.532,-23.532 -10.354,0 -19.16,6.724 -22.3,16.032 h -66.394 v -17.065 h 32.581 c 4.142,0 7.5,-3.358 7.5,-7.5 0,-4.142 -3.358,-7.5 -7.5,-7.5 H 383.741 V 263.501 H 504.5 c 4.142,0 7.5,-3.358 7.5,-7.5 0,-4.142 -3.358,-7.5 -7.5,-7.5 z M 482.435,113.694 c 1.612,-1.612 3.754,-2.499 6.033,-2.499 2.279,0 4.421,0.887 6.033,2.499 1.612,1.612 2.499,3.754 2.499,6.033 0,2.279 -0.887,4.421 -2.499,6.033 -1.612,1.612 -3.754,2.499 -6.033,2.499 -2.279,0 -4.421,-0.887 -6.033,-2.499 -1.612,-1.612 -2.499,-3.754 -2.499,-6.033 0,-2.279 0.887,-4.422 2.499,-6.033 z M 125.759,29.568 c -3.326,3.325 -8.739,3.326 -12.067,-0.001 -3.327,-3.327 -3.327,-8.74 0,-12.066 1.664,-1.664 3.848,-2.495 6.034,-2.495 2.185,0 4.37,0.832 6.033,2.495 3.327,3.327 3.327,8.74 0,12.067 z m 194.37,18.529 c -4.704,0 -8.532,-3.828 -8.532,-8.532 0,-4.704 3.827,-8.532 8.532,-8.532 4.705,0 8.532,3.828 8.532,8.532 0,4.704 -3.828,8.532 -8.532,8.532 z m 152.307,263.501 c 4.705,0 8.532,3.828 8.532,8.532 0,4.705 -3.828,8.532 -8.532,8.532 -4.704,0 -8.532,-3.828 -8.532,-8.532 -10e-4,-4.705 3.827,-8.532 8.532,-8.532 z"
   inkscape:connector-curvature="0" />

	</g>

</g>
      <g
         id="g1231">
	<g
   id="g1229">
		<path
   id="path1227"
   d="m 408.914,471.829 c -7.319,-7.32 -18.294,-8.781 -27.095,-4.422 l -49.343,-49.344 c -3.126,-3.125 -4.847,-7.281 -4.847,-11.701 v -22.619 h 16.548 c 3.345,0 6.671,-0.42 9.886,-1.247 4.011,-1.032 6.426,-5.121 5.394,-9.133 -1.032,-4.011 -5.119,-6.426 -9.133,-5.394 -1.994,0.513 -4.062,0.773 -6.147,0.773 H 167.823 c -13.545,0 -24.564,-11.02 -24.564,-24.564 V 167.824 c 0,-2.085 0.26,-4.153 0.773,-6.146 1.033,-4.011 -1.382,-8.1 -5.393,-9.133 -4.012,-1.033 -8.101,1.382 -9.133,5.393 -0.828,3.214 -1.247,6.54 -1.247,9.886 v 16.548 H 61.864 c -3.139,-9.308 -11.946,-16.032 -22.3,-16.032 -12.976,0 -23.532,10.556 -23.532,23.532 0,12.976 10.557,23.532 23.532,23.532 10.354,0 19.16,-6.724 22.3,-16.032 h 66.394 v 17.065 H 95.677 c -4.142,0 -7.5,3.358 -7.5,7.5 0,4.142 3.358,7.5 7.5,7.5 h 32.581 v 17.064 H 7.5 c -4.142,0 -7.5,3.358 -7.5,7.5 0,4.142 3.358,7.5 7.5,7.5 h 120.758 v 17.064 H 95.677 c -4.142,0 -7.5,3.358 -7.5,7.5 0,4.142 3.358,7.5 7.5,7.5 h 32.581 v 17.065 h -22.62 c -8.427,0 -16.35,3.281 -22.308,9.24 l -49.326,49.326 c -3.214,-1.601 -6.777,-2.453 -10.473,-2.453 -6.286,0 -12.195,2.448 -16.64,6.892 C 2.448,380.08 0,385.99 0,392.275 c 0,6.285 2.448,12.195 6.893,16.64 4.444,4.445 10.354,6.892 16.64,6.892 6.286,0 12.195,-2.448 16.64,-6.892 4.445,-4.445 6.893,-10.354 6.893,-16.64 0,-3.696 -0.852,-7.259 -2.453,-10.473 l 49.326,-49.326 c 3.125,-3.125 7.281,-4.847 11.702,-4.847 h 22.62 v 16.548 c 0,21.816 17.749,39.564 39.564,39.564 h 16.548 v 66.394 c -9.308,3.139 -16.032,11.946 -16.032,22.3 0,12.976 10.557,23.532 23.532,23.532 12.975,0 23.532,-10.557 23.532,-23.532 0,-10.354 -6.724,-19.16 -16.032,-22.3 v -66.394 h 17.064 v 32.581 c 0,4.142 3.358,7.5 7.5,7.5 4.142,0 7.5,-3.358 7.5,-7.5 V 383.741 H 248.5 v 120.76 c 0,4.142 3.358,7.5 7.5,7.5 4.142,0 7.5,-3.358 7.5,-7.5 V 383.743 h 17.064 v 32.581 c 0,4.142 3.358,7.5 7.5,7.5 4.142,0 7.5,-3.358 7.5,-7.5 v -32.581 h 17.064 v 22.619 c 0,8.427 3.282,16.35 9.241,22.308 l 49.343,49.343 c -4.359,8.801 -2.898,19.775 4.422,27.095 4.587,4.588 10.614,6.881 16.64,6.881 6.026,0 12.053,-2.293 16.64,-6.881 9.175,-9.175 9.175,-24.104 0,-33.279 z M 39.564,200.404 c -4.705,0 -8.532,-3.828 -8.532,-8.532 0,-4.705 3.828,-8.532 8.532,-8.532 4.704,0 8.532,3.828 8.532,8.532 0.001,4.705 -3.827,8.532 -8.532,8.532 z m -9.999,197.904 c -1.612,1.612 -3.754,2.499 -6.033,2.499 -2.279,0 -4.421,-0.887 -6.033,-2.499 C 15.887,396.696 15,394.554 15,392.275 c 0,-2.279 0.887,-4.421 2.499,-6.033 1.612,-1.612 3.754,-2.499 6.033,-2.499 2.279,0 4.421,0.887 6.033,2.499 1.612,1.612 2.499,3.754 2.499,6.033 0,2.279 -0.887,4.422 -2.499,6.033 z m 170.838,74.129 c 0,4.704 -3.827,8.532 -8.532,8.532 -4.705,0 -8.532,-3.828 -8.532,-8.532 0,-4.704 3.828,-8.532 8.532,-8.532 4.704,0 8.532,3.828 8.532,8.532 z m 197.905,22.065 c -3.327,3.327 -8.74,3.326 -12.067,0 -3.327,-3.327 -3.327,-8.74 0,-12.066 1.664,-1.663 3.849,-2.495 6.034,-2.495 2.185,0 4.37,0.832 6.033,2.495 3.326,3.326 3.326,8.739 0,12.066 z"
   inkscape:connector-curvature="0" />

	</g>

</g>
      <g
         id="g1237">
	<g
   id="g1235">
		<path
   id="path1233"
   d="m 335.645,235.962 c 0,-16.04 -11.732,-29.627 -27.793,-34.042 0.475,-1.961 0.739,-3.978 0.739,-6.039 0,-15.186 -13.479,-27.541 -30.045,-27.541 -8.974,0 -17.035,3.629 -22.545,9.365 -5.51,-5.736 -13.572,-9.365 -22.545,-9.365 -16.567,0 -30.045,12.355 -30.045,27.541 0,2.061 0.264,4.078 0.739,6.039 -16.061,4.414 -27.793,18.001 -27.793,34.042 0,7.839 2.774,15.235 7.899,21.343 -5.011,6.487 -7.899,14.362 -7.899,22.746 -0.002,12.752 6.812,24.659 18.035,32.045 0,0.006 0,0.012 0,0.018 0,17.396 15.501,31.549 34.555,31.549 10.95,0 20.719,-4.679 27.054,-11.957 6.335,7.278 16.104,11.957 27.054,11.957 18.337,0 33.376,-13.11 34.482,-29.602 11.137,-6.462 18.108,-17.781 18.108,-30.003 0,-8.99 -3.833,-17.566 -10.43,-24.048 6.596,-6.482 10.43,-15.059 10.43,-24.048 z m -26.544,30.68 c 7.227,3.814 11.541,10.325 11.541,17.416 0,5.287 -2.457,10.33 -6.607,14.101 -3.943,-7.301 -10.912,-13.113 -19.717,-15.879 -3.95,-1.241 -8.161,0.956 -9.403,4.907 -1.242,3.952 0.956,8.162 4.907,9.403 7.646,2.403 12.784,8.642 12.784,15.525 0,9.125 -8.772,16.549 -19.555,16.549 -10.782,0 -19.554,-7.424 -19.554,-16.549 v -48.097 c 0,-9.125 8.772,-16.548 19.554,-16.548 4.142,0 7.5,-3.358 7.5,-7.5 0,-4.142 -3.358,-7.5 -7.5,-7.5 -7.254,0 -13.99,2.056 -19.554,5.557 v -9.58 c 0,-4.142 -3.358,-7.5 -7.5,-7.5 -4.142,0 -7.5,3.358 -7.5,7.5 v 41.637 c -2.524,-1.584 -5.292,-2.895 -8.286,-3.836 -3.954,-1.242 -8.162,0.956 -9.403,4.906 -1.242,3.952 0.955,8.162 4.906,9.404 7.646,2.403 12.783,8.642 12.783,15.524 v 16.032 c 0,9.125 -8.772,16.549 -19.554,16.549 -10.783,0 -19.555,-7.424 -19.555,-16.549 0,-3.911 1.658,-7.713 4.668,-10.705 2.938,-2.92 2.952,-7.669 0.032,-10.607 -2.92,-2.938 -7.668,-2.952 -10.606,-0.032 -1.797,1.787 -3.344,3.739 -4.63,5.814 -4.736,-4.48 -7.501,-10.374 -7.501,-16.535 0,-11.112 8.721,-20.874 21.208,-23.739 4.037,-0.926 6.559,-4.95 5.633,-8.987 -0.926,-4.038 -4.951,-6.559 -8.987,-5.633 -5.027,1.153 -9.655,3.078 -13.759,5.605 -2.661,-3.342 -4.094,-7.256 -4.094,-11.335 0.003,-11.281 10.697,-20.465 23.88,-20.552 0.067,0.002 0.134,0.011 0.2,0.011 1.712,0 3.433,-0.583 4.842,-1.776 2.875,-2.434 3.452,-6.564 1.522,-9.671 -0.057,-0.092 -0.109,-0.186 -0.169,-0.275 -0.031,-0.045 -0.068,-0.088 -0.1,-0.133 -0.116,-0.163 -0.235,-0.323 -0.364,-0.477 -0.004,-0.005 -0.007,-0.01 -0.011,-0.014 -1.251,-1.479 -2.744,-3.927 -2.744,-7.193 0,-6.915 6.75,-12.541 15.045,-12.541 8.295,0 15.045,5.626 15.045,12.541 0,4.142 3.358,7.5 7.5,7.5 4.142,0 7.5,-3.358 7.5,-7.5 0,-6.915 6.75,-12.541 15.045,-12.541 8.295,0 15.045,5.626 15.045,12.541 0,1.848 -0.484,3.424 -1.125,4.72 -4.266,0.403 -8.392,1.434 -12.309,3.086 -3.817,1.609 -5.606,6.008 -3.997,9.825 1.609,3.816 6.008,5.607 9.825,3.997 3.242,-1.367 6.73,-2.07 10.368,-2.098 0.072,0.002 0.143,0.009 0.215,0.009 0.067,0 0.133,-0.009 0.2,-0.011 13.183,0.086 23.877,9.271 23.877,20.552 0,7.091 -4.314,13.601 -11.541,17.416 -2.46,1.298 -4,3.851 -4,6.633 0,2.782 1.54,5.335 4,6.633 z"
   inkscape:connector-curvature="0" />

	</g>

</g>
      <g
         id="g1239">
</g>
      <g
         id="g1241">
</g>
      <g
         id="g1243">
</g>
      <g
         id="g1245">
</g>
      <g
         id="g1247">
</g>
      <g
         id="g1249">
</g>
      <g
         id="g1251">
</g>
      <g
         id="g1253">
</g>
      <g
         id="g1255">
</g>
      <g
         id="g1257">
</g>
      <g
         id="g1259">
</g>
      <g
         id="g1261">
</g>
      <g
         id="g1263">
</g>
      <g
         id="g1265">
</g>
      <g
         id="g1267">
</g>
    </g>
    <text
       xml:space="preserve"
       style="font-style:normal;font-weight:normal;font-size:10.58333302px;line-height:125%;font-family:sans-serif;letter-spacing:0px;word-spacing:0px;fill:#000000;fill-opacity:1;stroke:none;stroke-width:0.26458332px;stroke-linecap:butt;stroke-linejoin:miter;stroke-opacity:1"
       x="125.4313"
       y="98.890419"
       id="text1304"><tspan
         sodipodi:role="line"
         id="tspan1302"
         x="125.4313"
         y="98.890419"
         style="stroke-width:0.26458332px">Consensus Algorithm</tspan></text>
    <text
       xml:space="preserve"
       style="font-style:normal;font-weight:normal;font-size:10.58333302px;line-height:125%;font-family:sans-serif;letter-spacing:0px;word-spacing:0px;fill:#000000;fill-opacity:1;stroke:none;stroke-width:0.26458332px;stroke-linecap:butt;stroke-linejoin:miter;stroke-opacity:1"
       x="272.7381"
       y="98.878532"
       id="text1308"><tspan
         sodipodi:role="line"
         id="tspan1306"
         x="272.7381"
         y="98.878532"
         style="stroke-width:0.26458332px">Distributed Database</tspan></text>
    <text
       xml:space="preserve"
       style="font-style:normal;font-weight:normal;font-size:10.58333302px;line-height:125%;font-family:sans-serif;letter-spacing:0px;word-spacing:0px;fill:#000000;fill-opacity:1;stroke:none;stroke-width:0.26458332px;stroke-linecap:butt;stroke-linejoin:miter;stroke-opacity:1"
       x="432.05499"
       y="98.361252"
       id="text1312"><tspan
         sodipodi:role="line"
         id="tspan1310"
         x="432.05499"
         y="98.361252"
         style="stroke-width:0.26458332px">Distributed Filesystem</tspan></text>
    <g
       id="g1339"
       transform="matrix(0.70557028,0,0,0.70555557,467.26009,36.887482)">
      <path
         id="path1314"
         d="M 43.026,60 H 5.033 C 2.274,60 0.03,57.755 0.03,54.996 V 5.004 C 0.03,2.245 2.275,0 5.033,0 h 37.993 c 2.759,0 5.003,2.245 5.003,5.004 V 54.996 C 48.03,57.755 45.785,60 43.026,60 Z M 5.033,2 C 3.377,2 2.03,3.348 2.03,5.004 V 54.996 C 2.03,56.652 3.378,58 5.033,58 h 37.993 c 1.656,0 3.003,-1.348 3.003,-3.004 V 5.004 C 46.029,3.348 44.682,2 43.026,2 Z"
         inkscape:connector-curvature="0" />
      <path
         id="path1316"
         d="m 24.03,34 c -4.962,0 -9,-4.037 -9,-9 0,-4.963 4.038,-9 9,-9 4.963,0 9,4.037 9,9 0,4.963 -4.037,9 -9,9 z m 0,-16 c -3.86,0 -7,3.141 -7,7 0,3.859 3.14,7 7,7 3.86,0 7,-3.141 7,-7 0,-3.859 -3.14,-7 -7,-7 z"
         inkscape:connector-curvature="0" />
      <path
         id="path1318"
         d="m 24.03,29 c -2.206,0 -4,-1.794 -4,-4 0,-2.206 1.794,-4 4,-4 2.206,0 4,1.794 4,4 0,2.206 -1.795,4 -4,4 z m 0,-6 c -1.103,0 -2,0.897 -2,2 0,1.103 0.897,2 2,2 1.103,0 2,-0.897 2,-2 0,-1.103 -0.897,-2 -2,-2 z"
         inkscape:connector-curvature="0" />
      <path
         id="path1320"
         d="m 14.23,51 c -2.867,0 -5.2,-2.333 -5.2,-5.2 0,-2.105 1.256,-3.99 3.2,-4.8 l 9.416,-3.923 c 0.374,-0.156 0.805,-0.07 1.091,0.216 0.287,0.286 0.372,0.718 0.216,1.092 L 19.03,47.8 c -0.81,1.944 -2.694,3.2 -4.8,3.2 z m 5.943,-11.143 -7.174,2.988 c -1.196,0.499 -1.969,1.658 -1.969,2.954 0,1.765 1.436,3.2 3.2,3.2 1.296,0 2.456,-0.773 2.954,-1.97 z"
         inkscape:connector-curvature="0" />
      <path
         id="path1322"
         d="M 20.03,60 H 5.033 C 2.274,60 0.03,57.755 0.03,54.996 V 45 c 0,-0.553 0.448,-1 1,-1 h 5 c 0.552,0 1,0.447 1,1 0,4.411 3.589,8 8,8 h 5 c 0.552,0 1,0.447 1,1 v 5 c 0,0.553 -0.448,1 -1,1 z m -18,-14 v 8.996 C 2.03,56.652 3.378,58 5.033,58 H 19.03 v -3 h -4 C 9.854,55 5.583,51.046 5.08,46 Z"
         inkscape:connector-curvature="0" />
      <path
         id="path1324"
         d="m 24.03,45 c -1.474,0 -2.993,-0.179 -4.515,-0.53 -0.287,-0.066 -0.53,-0.256 -0.665,-0.518 -0.134,-0.262 -0.146,-0.57 -0.033,-0.842 l 1.355,-3.253 -5.563,2.317 C 14.315,42.297 13.98,42.272 13.707,42.107 7.646,38.443 4.03,32.047 4.03,25 c 0,-11.028 8.972,-20 20,-20 11.028,0 20,8.972 20,20 0,11.028 -8.972,20 -20,20 z m -2.898,-2.246 c 0.98,0.163 1.95,0.246 2.897,0.246 9.925,0 18,-8.075 18,-18 0,-9.925 -8.075,-18 -18,-18 -9.925,0 -18,8.075 -18,18 0,6.175 3.087,11.794 8.286,15.131 l 7.33,-3.054 c 0.374,-0.156 0.805,-0.07 1.091,0.216 0.287,0.286 0.372,0.718 0.216,1.092 z"
         inkscape:connector-curvature="0" />
    </g>
    <path
       style="fill:none;fill-rule:evenodd;stroke:#000000;stroke-width:2.11666654;stroke-linecap:butt;stroke-linejoin:miter;stroke-opacity:0.50196081;stroke-miterlimit:4;stroke-dasharray:12.69999924, 12.69999924000000036;stroke-dashoffset:0"
       d="M 297.94791,-47.779187 170.94792,28.420812"
       id="path1341"
       inkscape:connector-curvature="0" />
    <path
       style="fill:none;fill-rule:evenodd;stroke:#000000;stroke-width:2.11666654;stroke-linecap:butt;stroke-linejoin:miter;stroke-opacity:0.50196081;stroke-miterlimit:4;stroke-dasharray:12.69999924, 12.69999924000000036;stroke-dashoffset:0"
       d="M 348.74791,-47.779187 484.21458,28.420812"
       id="path1343"
       inkscape:connector-curvature="0" />
    <path
       style="fill:none;fill-rule:evenodd;stroke:#000000;stroke-width:2.11666654;stroke-linecap:butt;stroke-linejoin:miter;stroke-opacity:0.50196081;stroke-miterlimit:4;stroke-dasharray:12.69999924, 12.69999924000000036;stroke-dashoffset:0"
       d="M 323.34792,-39.31252 V 28.420812"
       id="path1345"
       inkscape:connector-curvature="0" />
  </g>
</svg>
